if (_typeface_js && _typeface_js.loadFace) _typeface_js.loadFace({"glyphs":{"0":{"ha":203,"x_min":16,"x_max":189,"o":"m 16 126 q 39 231 16 195 q 105 267 62 267 q 189 132 189 267 q 165 31 189 66 q 99 -5 142 -5 q 37 29 59 -5 q 16 126 16 62 m 50 127 q 102 23 50 23 q 155 130 155 23 q 103 239 155 239 q 50 127 50 239 "},"1":{"ha":203,"x_min":31,"x_max":182,"o":"m 182 0 l 32 0 l 32 28 l 91 28 l 91 228 l 31 210 l 31 241 l 124 268 l 124 28 l 182 28 l 182 0 "},"2":{"ha":203,"x_min":18,"x_max":180,"o":"m 178 0 l 18 0 l 18 28 l 94 105 q 136 155 125 136 q 147 193 147 173 q 135 227 147 215 q 98 239 122 239 q 31 210 63 239 l 31 243 q 104 267 62 267 q 159 248 139 267 q 180 196 180 229 q 167 148 180 172 q 117 89 154 125 l 57 30 l 57 29 l 178 29 l 178 0 "},"3":{"ha":203,"x_min":24,"x_max":178,"o":"m 24 44 q 85 23 51 23 q 128 36 112 23 q 144 72 144 50 q 73 122 144 122 l 51 122 l 51 149 l 71 149 q 135 196 135 149 q 86 239 135 239 q 35 220 59 239 l 35 252 q 94 267 60 267 q 149 250 128 267 q 169 204 169 232 q 116 138 169 153 l 116 137 q 161 117 144 134 q 178 75 178 100 q 152 17 178 39 q 84 -5 127 -5 q 24 9 47 -5 l 24 44 "},"4":{"ha":203,"x_min":3,"x_max":191,"o":"m 191 68 l 157 68 l 157 0 l 125 0 l 125 68 l 3 68 l 3 90 l 119 262 l 157 262 l 157 94 l 191 94 l 191 68 m 125 94 l 125 204 q 126 231 125 216 l 125 231 q 115 211 123 225 l 37 94 l 125 94 "},"5":{"ha":203,"x_min":30,"x_max":179,"o":"m 30 40 q 85 23 56 23 q 129 38 112 23 q 145 79 145 54 q 129 118 145 104 q 79 132 112 132 q 38 129 64 132 l 38 262 l 168 262 l 168 233 l 69 233 l 69 159 q 91 160 83 160 q 156 139 133 160 q 179 81 179 118 q 154 19 179 43 q 85 -5 130 -5 q 30 6 49 -5 l 30 40 "},"6":{"ha":203,"x_min":20,"x_max":189,"o":"m 172 229 q 130 239 152 239 q 75 210 96 239 q 54 129 54 180 l 55 129 q 114 165 73 165 q 169 142 149 165 q 189 83 189 120 q 165 20 189 45 q 106 -5 142 -5 q 43 27 66 -5 q 20 115 20 58 q 50 226 20 185 q 129 267 80 267 q 172 259 157 267 l 172 229 m 56 86 q 70 41 56 60 q 106 23 83 23 q 142 39 128 23 q 155 80 155 55 q 142 122 155 107 q 106 137 130 137 q 70 122 83 137 q 56 86 56 106 "},"7":{"ha":203,"x_min":16,"x_max":186,"o":"m 186 251 l 84 0 l 50 0 l 147 233 l 16 233 l 16 262 l 186 262 l 186 251 "},"8":{"ha":203,"x_min":18,"x_max":186,"o":"m 74 138 q 27 201 27 160 q 49 249 27 231 q 106 267 71 267 q 157 250 137 267 q 178 205 178 233 q 129 138 178 162 l 129 138 q 186 67 186 117 q 162 15 186 35 q 96 -5 139 -5 q 40 15 62 -5 q 18 64 18 34 q 74 138 18 115 l 74 138 m 144 201 q 133 229 144 219 q 103 239 122 239 q 73 229 85 239 q 61 202 61 218 q 102 152 61 169 q 144 201 144 170 m 100 122 q 52 66 52 102 q 66 35 52 47 q 102 22 80 22 q 139 35 125 22 q 153 65 153 47 q 100 122 153 103 "},"9":{"ha":203,"x_min":17,"x_max":185,"o":"m 31 35 q 78 23 53 23 q 133 51 113 23 q 152 130 152 79 q 151 130 152 130 q 94 97 134 97 q 39 120 60 97 q 17 178 17 142 q 41 242 17 217 q 102 267 64 267 q 163 236 141 267 q 185 146 185 205 q 157 35 185 74 q 78 -5 128 -5 q 31 5 50 -5 l 31 35 m 50 183 q 64 141 50 157 q 102 125 77 125 q 136 140 122 125 q 151 174 151 154 q 136 221 151 202 q 100 239 122 239 q 64 223 78 239 q 50 183 50 207 "},"\"":{"ha":151,"x_min":36,"x_max":115,"o":"m 70 263 l 64 181 l 41 181 l 36 263 l 70 263 m 115 263 l 110 181 l 87 181 l 81 263 l 115 263 "},"#":{"ha":222,"x_min":6,"x_max":213,"o":"m 213 190 l 209 169 l 162 169 l 151 115 l 200 115 l 196 94 l 146 94 l 132 22 l 107 22 l 122 94 l 77 94 l 62 22 l 37 22 l 52 94 l 6 94 l 10 115 l 57 115 l 68 169 l 19 169 l 23 190 l 73 190 l 87 262 l 112 262 l 97 190 l 142 190 l 157 262 l 182 262 l 167 190 l 213 190 m 138 169 l 93 169 l 81 115 l 127 115 l 138 169 "},"$":{"ha":203,"x_min":28,"x_max":181,"o":"m 114 -39 l 94 -39 l 94 0 q 30 16 56 0 l 30 50 q 94 28 56 29 l 94 118 q 41 154 53 138 q 28 193 28 171 q 47 239 28 220 q 94 263 65 259 l 94 296 l 114 296 l 114 264 q 164 253 151 262 l 164 220 q 114 236 145 235 l 114 142 q 166 107 152 125 q 181 68 181 90 q 163 24 181 41 q 114 1 144 6 l 114 -39 m 94 235 q 62 197 62 228 q 68 173 62 182 q 94 153 75 163 l 94 235 m 114 29 q 149 66 149 37 q 114 109 149 90 l 114 29 "},"%":{"ha":309,"x_min":15,"x_max":295,"o":"m 15 196 q 32 248 15 229 q 78 267 49 267 q 122 249 106 267 q 138 200 138 231 q 120 150 138 170 q 75 131 103 131 q 31 149 47 131 q 15 196 15 167 m 41 198 q 50 164 41 176 q 76 153 60 153 q 102 165 93 153 q 112 199 112 177 q 103 233 112 221 q 77 245 94 245 q 51 233 60 245 q 41 198 41 220 m 252 262 l 83 -2 l 55 -2 l 224 262 l 252 262 m 172 62 q 189 113 172 94 q 235 132 206 132 q 279 115 263 132 q 295 65 295 97 q 277 15 295 35 q 232 -4 260 -4 q 188 14 204 -4 q 172 62 172 33 m 198 63 q 208 30 198 41 q 233 18 217 18 q 259 30 250 18 q 269 64 269 43 q 259 98 269 87 q 234 110 250 110 q 208 98 217 110 q 198 63 198 85 "},"&":{"ha":302,"x_min":21,"x_max":295,"o":"m 205 35 q 111 -4 167 -4 q 45 16 70 -4 q 21 72 21 36 q 82 152 21 125 q 52 207 52 175 q 71 251 52 234 q 121 267 90 267 q 169 252 151 267 q 186 211 186 236 q 137 150 186 170 q 209 83 175 136 q 238 180 238 125 q 235 205 238 193 l 267 205 q 269 181 269 195 q 257 119 269 151 q 225 58 245 86 q 249 32 239 39 q 271 25 258 25 q 295 31 281 25 l 295 1 q 265 -4 281 -4 q 237 3 250 -4 q 205 35 224 11 m 112 164 q 156 208 156 179 q 146 232 156 223 q 121 241 136 241 q 93 232 103 241 q 83 207 83 222 q 112 164 83 180 m 190 59 q 151 109 169 92 q 106 136 133 125 q 66 110 78 125 q 54 73 54 95 q 70 37 54 50 q 111 24 86 24 q 190 59 158 24 "},"'":{"ha":89,"x_min":28,"x_max":61,"o":"m 61 263 l 56 181 l 33 181 l 28 263 l 61 263 "},"(":{"ha":116,"x_min":26,"x_max":113,"o":"m 83 -60 q 26 100 26 5 q 83 262 26 195 l 113 262 q 55 100 55 192 q 112 -60 55 9 l 83 -60 "},")":{"ha":116,"x_min":4,"x_max":91,"o":"m 4 -60 q 61 100 61 9 q 4 262 61 193 l 33 262 q 91 100 91 195 q 33 -60 91 5 l 4 -60 "},"*":{"ha":158,"x_min":14,"x_max":144,"o":"m 144 201 l 94 191 l 130 147 l 108 132 l 79 181 l 51 132 l 29 147 l 64 191 l 14 201 l 22 225 l 71 207 l 66 262 l 93 262 l 88 207 l 136 225 l 144 201 "},"+":{"ha":258,"x_min":43,"x_max":216,"o":"m 216 96 l 142 96 l 142 22 l 116 22 l 116 96 l 43 96 l 43 122 l 116 122 l 116 195 l 142 195 l 142 122 l 216 122 l 216 96 "},",":{"ha":83,"x_min":7,"x_max":60,"o":"m 60 42 l 31 -48 l 7 -48 l 28 42 l 60 42 "},"-":{"ha":150,"x_min":26,"x_max":126,"o":"m 126 91 l 26 91 l 26 117 l 126 117 l 126 91 "},".":{"ha":83,"x_min":20,"x_max":64,"o":"m 20 18 q 26 33 20 26 q 42 39 33 39 q 58 33 52 39 q 64 18 64 26 q 58 2 64 9 q 42 -4 52 -4 q 26 2 33 -4 q 20 18 20 9 "},"/":{"ha":149,"x_min":-5,"x_max":151,"o":"m 151 262 l 25 -43 l -5 -43 l 120 262 l 151 262 "},":":{"ha":83,"x_min":20,"x_max":64,"o":"m 20 170 q 27 185 20 179 q 42 191 33 191 q 57 185 51 191 q 64 170 64 179 q 58 155 64 161 q 42 149 52 149 q 26 155 33 149 q 20 170 20 161 m 20 18 q 26 33 20 26 q 42 39 33 39 q 58 33 52 39 q 64 18 64 26 q 58 2 64 9 q 42 -4 52 -4 q 26 2 33 -4 q 20 18 20 9 "},";":{"ha":83,"x_min":7,"x_max":64,"o":"m 20 170 q 27 185 20 179 q 43 191 33 191 q 58 185 52 191 q 64 170 64 179 q 58 155 64 161 q 43 149 52 149 q 26 155 33 149 q 20 170 20 161 m 60 42 l 31 -48 l 7 -48 l 28 42 l 60 42 "},"<":{"ha":258,"x_min":50,"x_max":208,"o":"m 208 22 l 50 101 l 50 114 l 208 201 l 208 172 l 90 109 l 90 108 l 208 51 l 208 22 "},"=":{"ha":258,"x_min":43,"x_max":216,"o":"m 216 136 l 43 136 l 43 161 l 216 161 l 216 136 m 216 57 l 43 57 l 43 83 l 216 83 l 216 57 "},">":{"ha":258,"x_min":50,"x_max":208,"o":"m 208 101 l 50 22 l 50 52 l 168 107 l 168 109 l 50 172 l 50 201 l 208 114 l 208 101 "},"?":{"ha":168,"x_min":22,"x_max":151,"o":"m 60 73 q 56 100 56 85 q 61 123 56 111 q 87 154 66 134 q 113 184 108 174 q 117 204 117 195 q 106 230 117 220 q 77 239 94 239 q 22 214 45 239 l 22 250 q 81 267 51 267 q 132 251 113 267 q 151 208 151 235 q 145 182 151 195 q 115 146 139 168 q 92 119 98 129 q 85 99 85 110 q 92 73 85 87 l 60 73 m 56 18 q 62 33 56 26 q 77 39 68 39 q 93 33 86 39 q 99 18 99 26 q 93 3 99 9 q 78 -3 87 -3 q 62 3 68 -3 q 56 18 56 9 "},"@":{"ha":358,"x_min":31,"x_max":328,"o":"m 244 195 q 235 92 235 96 q 256 56 235 56 q 288 77 275 56 q 301 132 301 98 q 270 213 301 181 q 182 244 238 244 q 93 206 129 244 q 58 111 58 168 q 91 22 58 56 q 182 -12 124 -12 q 258 3 226 -12 l 258 -21 q 179 -35 227 -35 q 72 5 113 -35 q 31 111 31 45 q 74 222 31 178 q 184 266 117 266 q 287 229 246 266 q 328 133 328 193 q 306 61 328 89 q 253 33 284 33 q 212 76 212 33 l 212 76 q 159 33 198 33 q 119 52 134 33 q 104 102 104 70 q 125 170 104 143 q 180 197 146 197 q 203 191 193 197 q 216 174 214 184 l 217 174 q 219 195 217 175 l 244 195 m 131 101 q 140 68 131 81 q 165 56 149 56 q 200 78 187 56 q 212 137 212 100 q 180 175 212 175 q 145 154 159 175 q 131 101 131 132 "},"A":{"ha":244,"x_min":4,"x_max":240,"o":"m 240 0 l 203 0 l 176 72 l 66 72 l 41 0 l 4 0 l 104 262 l 140 262 l 240 0 m 165 102 l 125 211 q 121 229 124 216 l 121 229 q 117 211 119 217 l 77 102 l 165 102 "},"B":{"ha":218,"x_min":34,"x_max":199,"o":"m 34 0 l 34 262 l 111 262 q 166 246 146 262 q 187 202 187 229 q 175 164 187 180 q 141 140 162 147 l 141 140 q 183 119 168 136 q 199 76 199 102 q 175 21 199 42 q 113 0 151 0 l 34 0 m 68 233 l 68 151 l 98 151 q 137 162 123 151 q 151 196 151 174 q 102 233 151 233 l 68 233 m 68 121 l 68 30 l 109 30 q 150 42 135 30 q 164 76 164 54 q 103 121 164 121 l 68 121 "},"C":{"ha":232,"x_min":17,"x_max":214,"o":"m 214 11 q 141 -5 184 -5 q 51 31 84 -5 q 17 126 17 67 q 55 229 17 190 q 151 267 93 267 q 214 256 189 267 l 214 221 q 152 237 185 237 q 80 207 108 237 q 52 128 52 178 q 78 54 52 81 q 146 26 104 26 q 214 43 184 26 l 214 11 "},"D":{"ha":264,"x_min":34,"x_max":248,"o":"m 34 0 l 34 262 l 109 262 q 208 228 168 262 q 248 134 248 193 q 208 37 248 73 q 106 0 168 0 l 34 0 m 68 233 l 68 30 l 106 30 q 184 57 156 30 q 212 134 212 85 q 183 208 212 183 q 107 233 155 233 l 68 233 "},"E":{"ha":191,"x_min":34,"x_max":175,"o":"m 175 0 l 34 0 l 34 262 l 169 262 l 169 233 l 68 233 l 68 149 l 161 149 l 161 118 l 68 118 l 68 30 l 175 30 l 175 0 "},"F":{"ha":184,"x_min":34,"x_max":169,"o":"m 169 233 l 68 233 l 68 144 l 161 144 l 161 115 l 68 115 l 68 0 l 34 0 l 34 262 l 169 262 l 169 233 "},"G":{"ha":258,"x_min":17,"x_max":233,"o":"m 233 18 q 144 -5 193 -5 q 52 32 87 -5 q 17 127 17 68 q 55 228 17 189 q 154 267 94 267 q 226 254 197 267 l 226 217 q 151 237 195 237 q 80 207 108 237 q 52 130 52 178 q 78 53 52 81 q 147 26 104 26 q 198 37 177 26 l 198 109 l 141 109 l 141 138 l 233 138 l 233 18 "},"H":{"ha":269,"x_min":34,"x_max":235,"o":"m 235 0 l 201 0 l 201 118 l 68 118 l 68 0 l 34 0 l 34 262 l 68 262 l 68 149 l 201 149 l 201 262 l 235 262 l 235 0 "},"I":{"ha":102,"x_min":9,"x_max":93,"o":"m 93 234 l 68 234 l 68 28 l 93 28 l 93 0 l 9 0 l 9 28 l 34 28 l 34 234 l 9 234 l 9 262 l 93 262 l 93 234 "},"J":{"ha":138,"x_min":4,"x_max":106,"o":"m 106 95 q 85 21 106 47 q 31 -5 65 -5 q 4 0 14 -5 l 4 33 q 31 26 14 26 q 72 95 72 26 l 72 262 l 106 262 l 106 95 "},"K":{"ha":220,"x_min":34,"x_max":220,"o":"m 220 0 l 174 0 l 75 119 q 68 129 71 125 l 68 129 l 68 0 l 34 0 l 34 262 l 68 262 l 68 139 l 68 139 q 75 149 71 144 l 171 262 l 213 262 l 102 136 l 220 0 "},"L":{"ha":178,"x_min":34,"x_max":172,"o":"m 172 0 l 34 0 l 34 262 l 68 262 l 68 30 l 172 30 l 172 0 "},"M":{"ha":339,"x_min":34,"x_max":305,"o":"m 271 0 l 271 174 q 274 226 271 195 l 273 226 q 265 199 269 207 l 178 0 l 160 0 l 73 197 q 66 226 71 204 l 64 226 q 66 172 66 208 l 66 0 l 34 0 l 34 262 l 80 262 l 157 83 q 169 50 166 62 l 170 50 q 182 83 179 75 l 261 262 l 305 262 l 305 0 l 271 0 "},"N":{"ha":282,"x_min":34,"x_max":248,"o":"m 248 0 l 208 0 l 76 204 q 67 221 71 213 l 66 221 q 67 184 67 212 l 67 0 l 34 0 l 34 262 l 77 262 l 205 62 q 216 43 214 47 l 216 43 q 215 82 215 55 l 215 262 l 248 262 l 248 0 "},"O":{"ha":283,"x_min":17,"x_max":266,"o":"m 17 128 q 51 230 17 192 q 144 267 85 267 q 233 230 199 267 q 266 134 266 193 q 232 33 266 71 q 140 -5 197 -5 q 51 32 84 -5 q 17 128 17 69 m 52 131 q 77 55 52 83 q 140 26 101 26 q 207 53 182 26 q 231 130 231 81 q 207 209 231 181 q 142 237 183 237 q 77 208 102 237 q 52 131 52 178 "},"P":{"ha":212,"x_min":34,"x_max":198,"o":"m 68 98 l 68 0 l 34 0 l 34 262 l 109 262 q 175 242 151 262 q 198 183 198 222 q 171 121 198 144 q 102 98 143 97 l 68 98 m 68 233 l 68 128 l 99 128 q 146 142 130 128 q 162 182 162 156 q 102 233 162 233 l 68 233 "},"Q":{"ha":283,"x_min":17,"x_max":274,"o":"m 274 -68 q 244 -72 261 -72 q 198 -60 220 -72 q 138 -5 176 -48 q 51 33 85 -5 q 17 128 17 71 q 51 230 17 192 q 145 267 85 267 q 233 230 199 267 q 266 134 266 193 q 242 46 266 82 q 176 1 219 11 q 213 -32 197 -23 q 248 -41 229 -41 q 274 -36 263 -41 l 274 -68 m 52 131 q 77 55 52 83 q 140 26 101 26 q 207 53 182 26 q 231 130 231 81 q 207 209 231 181 q 142 237 183 237 q 77 208 102 237 q 52 131 52 178 "},"R":{"ha":227,"x_min":34,"x_max":226,"o":"m 226 0 l 186 0 l 142 73 q 118 103 129 95 q 92 111 107 111 l 68 111 l 68 0 l 34 0 l 34 262 l 114 262 q 174 244 152 262 q 195 193 195 226 q 137 121 195 138 l 137 121 q 156 107 148 116 q 176 79 164 99 l 226 0 m 68 233 l 68 140 l 108 140 q 145 154 131 140 q 160 189 160 168 q 147 221 160 210 q 109 233 134 233 l 68 233 "},"S":{"ha":200,"x_min":22,"x_max":183,"o":"m 22 50 q 54 32 34 39 q 92 25 74 25 q 147 64 147 25 q 141 84 147 75 q 125 100 136 93 q 86 121 115 106 q 34 157 47 140 q 22 196 22 174 q 48 248 22 229 q 115 267 75 267 q 172 258 153 267 l 172 220 q 112 237 148 237 q 73 227 87 237 q 58 199 58 217 q 68 173 58 183 q 113 146 79 163 q 168 109 152 127 q 183 67 183 90 q 158 14 183 33 q 88 -5 133 -5 q 52 0 73 -5 q 22 11 31 4 l 22 50 "},"T":{"ha":199,"x_min":7,"x_max":193,"o":"m 193 233 l 117 233 l 117 0 l 83 0 l 83 233 l 7 233 l 7 262 l 193 262 l 193 233 "},"U":{"ha":259,"x_min":31,"x_max":229,"o":"m 229 107 q 127 -5 229 -5 q 31 103 31 -5 l 31 262 l 64 262 l 64 104 q 131 26 64 26 q 195 102 195 26 l 195 262 l 229 262 l 229 107 "},"V":{"ha":235,"x_min":3,"x_max":232,"o":"m 232 262 l 135 0 l 98 0 l 3 262 l 41 262 l 111 57 q 117 34 115 47 l 117 34 q 123 58 119 45 l 195 262 l 232 262 "},"W":{"ha":353,"x_min":5,"x_max":349,"o":"m 349 262 l 275 0 l 236 0 l 183 189 q 178 216 179 202 l 178 216 q 173 189 177 202 l 120 0 l 81 0 l 5 262 l 42 262 l 96 64 q 100 37 99 51 l 101 37 q 106 64 102 47 l 163 262 l 197 262 l 251 62 q 255 37 254 53 l 256 37 q 261 63 257 49 l 313 262 l 349 262 "},"X":{"ha":224,"x_min":4,"x_max":219,"o":"m 219 0 l 178 0 l 119 99 q 113 113 117 102 l 112 113 q 106 98 112 111 l 45 0 l 4 0 l 92 132 l 12 262 l 53 262 l 104 172 q 114 153 109 163 l 115 153 q 125 172 119 162 l 179 262 l 218 262 l 136 132 l 219 0 "},"Y":{"ha":210,"x_min":3,"x_max":208,"o":"m 208 262 l 121 96 l 121 0 l 87 0 l 87 96 l 3 262 l 41 262 l 98 146 q 104 130 98 146 l 105 130 q 112 146 107 136 l 172 262 l 208 262 "},"Z":{"ha":215,"x_min":6,"x_max":208,"o":"m 208 252 l 56 30 l 204 30 l 204 0 l 6 0 l 6 12 l 157 233 l 18 233 l 18 262 l 208 262 l 208 252 "},"[":{"ha":116,"x_min":37,"x_max":106,"o":"m 106 -60 l 37 -60 l 37 262 l 106 262 l 106 239 l 66 239 l 66 -37 l 106 -37 l 106 -60 "},"\\":{"ha":144,"x_min":-4,"x_max":149,"o":"m 149 -44 l 119 -44 l -4 262 l 26 262 l 149 -44 "},"]":{"ha":116,"x_min":10,"x_max":79,"o":"m 79 -60 l 10 -60 l 10 -37 l 50 -37 l 50 239 l 10 239 l 10 262 l 79 262 l 79 -60 "},"^":{"ha":258,"x_min":41,"x_max":216,"o":"m 216 114 l 187 114 l 127 227 l 126 227 l 71 114 l 41 114 l 119 267 l 133 267 l 216 114 "},"_":{"ha":155,"x_min":0,"x_max":155,"o":"m 155 -54 l 0 -54 l 0 -33 l 155 -33 l 155 -54 "},"`":{"ha":102,"x_min":14,"x_max":89,"o":"m 89 222 l 64 222 l 14 282 l 47 282 l 89 222 "},"a":{"ha":192,"x_min":16,"x_max":166,"o":"m 34 174 q 98 192 62 192 q 166 121 166 192 l 166 0 l 134 0 l 134 29 l 133 29 q 75 -5 113 -5 q 32 10 48 -5 q 16 50 16 25 q 78 111 16 102 l 134 119 q 96 165 134 165 q 34 142 62 165 l 34 174 m 90 88 q 58 76 66 85 q 49 53 49 68 q 58 31 49 39 q 83 22 68 22 q 119 38 105 22 q 134 76 134 53 l 134 94 l 90 88 "},"b":{"ha":222,"x_min":30,"x_max":205,"o":"m 63 26 l 63 0 l 30 0 l 30 277 l 63 277 l 63 155 l 64 155 q 128 192 85 192 q 184 167 163 192 q 205 99 205 142 q 181 23 205 52 q 119 -5 158 -5 q 64 26 83 -5 l 63 26 m 62 77 q 77 39 62 54 q 115 23 92 23 q 156 43 141 23 q 171 100 171 64 q 157 147 171 130 q 119 164 143 164 q 78 147 94 164 q 62 102 62 130 l 62 77 "},"c":{"ha":174,"x_min":17,"x_max":159,"o":"m 159 8 q 107 -5 138 -5 q 42 21 66 -5 q 17 90 17 47 q 44 164 17 136 q 115 192 71 192 q 159 182 141 192 l 159 150 q 115 164 140 164 q 69 144 87 164 q 51 92 51 125 q 68 41 51 60 q 113 23 85 23 q 159 39 138 23 l 159 8 "},"d":{"ha":222,"x_min":17,"x_max":193,"o":"m 193 0 l 159 0 l 159 31 l 159 31 q 95 -5 138 -5 q 38 21 59 -5 q 17 90 17 46 q 41 164 17 136 q 103 192 64 192 q 159 162 141 192 l 159 162 l 159 277 l 193 277 l 193 0 m 159 111 q 144 149 159 134 q 108 164 130 164 q 66 144 81 164 q 51 91 51 125 q 65 41 51 60 q 104 23 80 23 q 144 41 129 23 q 159 85 159 59 l 159 111 "},"e":{"ha":197,"x_min":17,"x_max":182,"o":"m 182 85 l 51 85 q 68 39 52 55 q 111 22 83 22 q 169 43 142 22 l 169 13 q 103 -5 144 -5 q 40 21 62 -5 q 17 93 17 47 q 42 164 17 136 q 104 192 67 192 q 162 168 141 192 q 182 102 182 144 l 182 85 m 149 112 q 137 151 149 137 q 104 165 125 165 q 70 150 84 165 q 51 112 55 136 l 149 112 "},"f":{"ha":120,"x_min":9,"x_max":125,"o":"m 125 249 q 106 254 117 254 q 75 216 75 254 l 75 187 l 118 187 l 118 160 l 75 160 l 75 0 l 41 0 l 41 160 l 9 160 l 9 187 l 41 187 l 41 217 q 59 264 41 247 q 103 281 76 281 q 125 278 117 281 l 125 249 "},"g":{"ha":222,"x_min":17,"x_max":193,"o":"m 193 16 q 92 -88 193 -88 q 31 -75 56 -88 l 31 -43 q 91 -61 62 -61 q 159 11 159 -61 l 159 31 l 159 31 q 95 -5 137 -5 q 38 21 60 -5 q 17 87 17 46 q 40 164 17 136 q 103 192 64 192 q 159 162 140 192 l 159 162 l 159 187 l 193 187 l 193 16 m 159 111 q 144 149 159 133 q 109 164 130 164 q 66 144 81 164 q 51 90 51 125 q 65 41 51 60 q 104 23 80 23 q 144 41 128 23 q 159 85 159 58 l 159 111 "},"h":{"ha":214,"x_min":30,"x_max":188,"o":"m 188 0 l 155 0 l 155 108 q 113 164 155 164 q 77 148 92 164 q 63 106 63 132 l 63 0 l 30 0 l 30 277 l 63 277 l 63 157 l 64 157 q 125 192 85 192 q 188 115 188 192 l 188 0 "},"i":{"ha":92,"x_min":26,"x_max":68,"o":"m 26 254 q 32 269 26 262 q 46 275 37 275 q 62 269 56 275 q 68 254 68 262 q 62 239 68 245 q 46 233 56 233 q 32 239 37 233 q 26 254 26 245 m 29 0 l 29 187 l 62 187 l 62 0 l 29 0 "},"j":{"ha":93,"x_min":-35,"x_max":68,"o":"m 26 254 q 32 269 26 262 q 47 275 37 275 q 62 269 56 275 q 68 254 68 262 q 62 239 68 245 q 47 233 56 233 q 32 239 37 233 q 26 254 26 245 m 63 7 q 44 -63 63 -39 q -9 -88 25 -88 q -35 -83 -22 -88 l -35 -52 q -10 -60 -22 -60 q 30 2 30 -60 l 30 187 l 63 187 l 63 7 "},"k":{"ha":189,"x_min":30,"x_max":189,"o":"m 189 0 l 144 0 l 64 90 l 63 90 l 63 0 l 30 0 l 30 277 l 63 277 l 63 102 l 64 102 l 140 187 l 182 187 l 98 97 l 189 0 "},"l":{"ha":92,"x_min":29,"x_max":62,"o":"m 29 0 l 29 277 l 62 277 l 62 0 l 29 0 "},"m":{"ha":326,"x_min":30,"x_max":300,"o":"m 300 0 l 267 0 l 267 108 q 257 151 267 138 q 226 164 248 164 q 194 147 208 164 q 181 106 181 130 l 181 0 l 148 0 l 148 111 q 106 164 148 164 q 75 148 87 164 q 63 106 63 132 l 63 0 l 30 0 l 30 187 l 63 187 l 63 158 l 64 158 q 122 192 83 192 q 155 181 141 192 q 175 153 170 171 q 237 192 196 192 q 300 115 300 192 l 300 0 "},"n":{"ha":214,"x_min":30,"x_max":188,"o":"m 188 0 l 155 0 l 155 106 q 113 164 155 164 q 77 148 91 164 q 63 107 63 132 l 63 0 l 30 0 l 30 187 l 63 187 l 63 157 l 64 157 q 125 192 85 192 q 172 172 156 192 q 188 115 188 153 l 188 0 "},"o":{"ha":220,"x_min":17,"x_max":203,"o":"m 17 92 q 43 165 17 138 q 113 192 69 192 q 179 166 155 192 q 203 94 203 140 q 178 23 203 50 q 109 -5 153 -5 q 42 22 67 -5 q 17 92 17 48 m 51 93 q 67 42 51 60 q 111 23 83 23 q 155 41 140 23 q 170 94 170 60 q 155 146 170 127 q 111 164 140 164 q 67 145 83 164 q 51 93 51 126 "},"p":{"ha":222,"x_min":30,"x_max":205,"o":"m 63 26 l 63 -86 l 30 -86 l 30 187 l 63 187 l 63 155 l 64 155 q 128 192 85 192 q 184 167 164 192 q 205 99 205 142 q 182 24 205 52 q 119 -5 159 -5 q 64 26 83 -5 l 63 26 m 62 77 q 77 39 62 54 q 115 23 92 23 q 156 43 141 23 q 171 100 171 64 q 157 147 171 130 q 119 164 143 164 q 78 147 94 164 q 62 102 62 130 l 62 77 "},"q":{"ha":222,"x_min":17,"x_max":193,"o":"m 193 -86 l 159 -86 l 159 31 l 159 31 q 95 -5 139 -5 q 38 20 60 -5 q 17 90 17 45 q 40 164 17 136 q 103 192 64 192 q 159 162 141 192 l 159 162 l 159 187 l 193 187 l 193 -86 m 159 111 q 145 149 159 133 q 108 164 131 164 q 66 144 81 164 q 51 90 51 125 q 65 41 51 58 q 104 23 80 23 q 144 41 130 23 q 159 85 159 58 l 159 111 "},"r":{"ha":132,"x_min":30,"x_max":130,"o":"m 130 155 q 107 161 122 161 q 76 142 88 161 q 63 95 63 124 l 63 0 l 30 0 l 30 187 l 63 187 l 63 149 l 64 149 q 113 191 78 191 q 130 188 124 191 l 130 155 "},"s":{"ha":161,"x_min":19,"x_max":146,"o":"m 19 41 q 73 22 44 22 q 112 47 112 22 q 103 65 112 58 q 69 82 95 73 q 28 107 38 95 q 19 137 19 119 q 40 177 19 162 q 92 192 62 192 q 137 184 116 192 l 137 151 q 89 165 116 165 q 63 158 73 165 q 53 140 53 151 q 60 122 53 129 q 92 106 68 116 q 135 82 123 94 q 146 51 146 69 q 125 10 146 25 q 70 -5 104 -5 q 19 7 41 -5 l 19 41 "},"t":{"ha":130,"x_min":7,"x_max":119,"o":"m 119 2 q 90 -4 109 -4 q 40 52 40 -4 l 40 160 l 7 160 l 7 187 l 40 187 l 40 233 l 73 243 l 73 187 l 119 187 l 119 160 l 73 160 l 73 58 q 79 31 73 39 q 100 23 85 23 q 119 29 111 23 l 119 2 "},"u":{"ha":214,"x_min":26,"x_max":184,"o":"m 184 0 l 151 0 l 151 29 l 151 29 q 92 -5 132 -5 q 26 75 26 -5 l 26 187 l 59 187 l 59 80 q 102 23 59 23 q 138 39 124 23 q 151 79 151 55 l 151 187 l 184 187 l 184 0 "},"v":{"ha":182,"x_min":2,"x_max":180,"o":"m 180 187 l 106 0 l 73 0 l 2 187 l 39 187 l 84 54 q 91 26 90 37 l 92 26 q 98 53 94 41 l 146 187 l 180 187 "},"w":{"ha":274,"x_min":4,"x_max":270,"o":"m 270 187 l 214 0 l 179 0 l 142 132 q 139 149 140 140 l 138 149 q 134 132 138 142 l 94 0 l 60 0 l 4 187 l 39 187 l 76 48 q 79 31 78 42 l 80 31 q 83 49 81 41 l 123 187 l 155 187 l 194 48 q 197 31 195 42 l 198 31 q 201 48 198 39 l 237 187 l 270 187 "},"x":{"ha":176,"x_min":4,"x_max":172,"o":"m 172 187 l 109 93 l 171 0 l 132 0 l 96 60 q 88 74 94 64 l 87 74 q 79 60 87 73 l 43 0 l 4 0 l 68 92 l 7 187 l 46 187 l 81 125 q 89 110 84 119 l 90 110 l 135 187 l 172 187 "},"y":{"ha":184,"x_min":2,"x_max":182,"o":"m 182 187 l 97 -28 q 30 -88 73 -88 q 9 -85 18 -88 l 9 -56 q 28 -60 18 -60 q 61 -34 50 -60 l 76 0 l 2 187 l 39 187 l 88 47 l 92 31 l 93 31 q 97 46 94 37 l 148 187 l 182 187 "},"z":{"ha":171,"x_min":6,"x_max":162,"o":"m 161 0 l 6 0 l 6 11 l 115 160 l 16 160 l 16 187 l 162 187 l 162 176 l 54 27 l 161 27 l 161 0 "},"{":{"ha":116,"x_min":17,"x_max":104,"o":"m 104 -60 q 45 -2 45 -59 l 45 52 q 17 90 45 89 l 17 113 q 45 152 45 115 l 45 204 q 104 262 45 262 l 104 238 q 75 202 75 237 l 75 150 q 47 102 75 111 l 47 101 q 75 54 75 93 l 75 2 q 82 -27 75 -19 q 104 -35 89 -35 l 104 -60 "},"|":{"ha":94,"x_min":33,"x_max":62,"o":"m 62 -88 l 33 -88 l 33 287 l 62 287 l 62 -88 "},"}":{"ha":116,"x_min":12,"x_max":99,"o":"m 99 90 q 71 52 71 89 l 71 -2 q 12 -60 71 -59 l 12 -35 q 35 -27 28 -35 q 41 2 41 -18 l 41 54 q 69 101 41 93 l 69 102 q 41 150 41 111 l 41 202 q 12 238 41 237 l 12 262 q 71 204 71 262 l 71 152 q 99 113 71 115 l 99 90 "},"~":{"ha":258,"x_min":38,"x_max":220,"o":"m 220 138 q 204 95 218 110 q 168 80 191 80 q 119 100 148 80 q 90 111 101 111 q 64 79 65 111 l 38 79 q 53 122 39 107 q 90 138 67 138 q 133 121 109 138 q 169 106 157 106 q 187 115 180 106 q 194 138 193 123 l 220 138 "},"":{"ha":305,"x_min":1,"x_max":305,"o":"m 77 254 l 229 254 q 261 199 231 253 q 305 121 305 124 q 254 32 305 119 q 229 -11 232 -9 l 77 -11 q 10 104 70 0 q 1 122 1 119 q 77 254 75 252 m 92 211 q 134 136 134 138 l 102 24 l 199 24 l 199 24 l 172 136 q 214 209 214 208 l 209 218 l 208 218 l 153 125 l 153 125 l 100 218 l 97 218 l 92 211 m 119 220 l 119 220 l 153 201 l 186 220 l 119 220 m 43 128 l 43 128 l 44 128 l 44 119 l 82 50 l 82 194 l 82 195 l 43 128 m 224 193 l 224 47 l 262 121 l 262 127 l 262 128 l 224 193 "},"":{"ha":244,"x_min":0,"x_max":244,"o":"m 173 260 q 204 258 195 258 l 237 258 q 244 247 244 254 q 230 233 244 233 l 224 233 l 224 231 q 173 93 224 147 q 190 53 190 73 l 190 43 q 133 0 181 0 q 73 58 73 14 l 73 63 q 77 77 73 70 l 76 77 q 60 76 63 76 q 1 123 19 76 q 0 136 0 131 l 0 140 q 43 184 0 170 l 56 184 q 94 165 70 184 q 193 237 137 189 l 193 238 l 176 238 q 170 252 170 241 l 170 255 l 173 260 m 111 149 q 118 121 118 138 l 117 115 l 125 116 l 133 116 q 161 109 142 116 q 199 211 199 157 q 149 174 177 190 q 111 149 140 164 "},"":{"ha":283,"x_min":0,"x_max":196,"o":"m 96 287 q 117 251 117 281 q 113 235 117 243 l 113 233 l 115 233 q 148 256 123 256 q 156 249 155 252 q 134 222 146 222 q 129 218 134 218 l 129 216 l 149 216 q 191 180 178 216 q 196 149 193 172 q 174 75 186 94 q 100 0 134 0 l 87 0 q 28 52 59 0 q 0 149 3 103 l 0 155 q 50 218 0 218 q 62 215 58 215 q 31 241 43 224 l 31 242 q 38 249 31 245 l 48 249 q 75 239 58 249 l 74 248 q 96 287 74 287 m 22 151 q 39 136 26 136 l 46 136 q 59 155 59 143 q 46 172 59 165 l 41 172 q 22 151 22 172 m 77 150 q 100 131 87 131 q 118 150 118 140 q 104 172 113 172 l 99 172 q 77 150 79 172 m 137 155 q 158 130 137 130 l 162 130 q 175 155 175 138 l 175 161 q 158 172 170 172 l 154 172 q 137 155 137 172 m 54 93 q 72 78 59 78 q 90 95 90 79 q 68 113 85 113 q 54 93 54 108 m 110 90 q 128 75 118 75 q 144 93 143 75 q 128 110 144 110 q 110 90 110 108 "},"":{"ha":217,"x_min":0,"x_max":205,"o":"m 120 258 l 124 258 q 143 249 132 258 q 155 245 155 249 l 155 242 q 130 222 149 222 l 124 223 l 121 222 q 103 224 108 224 l 103 223 q 117 182 117 205 l 117 180 q 151 184 146 182 q 205 138 189 184 l 205 135 q 166 18 205 83 q 136 0 151 0 l 132 0 q 105 14 122 0 l 98 14 q 83 1 92 1 l 81 1 q 15 56 31 1 q 0 130 0 108 q 54 182 0 174 l 62 182 q 91 177 73 182 l 91 186 q 72 218 91 212 q 57 223 62 220 q 66 242 57 234 l 75 242 q 88 237 79 242 q 120 258 104 258 "},"":{"ha":258,"x_min":-1,"x_max":256,"o":"m 236 190 q 254 165 248 180 q 256 151 256 156 q 247 123 256 134 q 222 106 237 111 q 208 103 216 103 q 198 104 194 103 q 216 84 202 104 q 225 57 225 72 q 203 16 225 34 q 178 8 193 8 q 137 30 156 8 q 128 39 129 39 q 117 28 127 39 q 77 8 102 8 q 49 18 61 8 q 30 52 31 30 q 39 84 28 69 q 46 103 54 104 q 33 106 39 103 q 8 123 19 111 q -1 151 -1 136 q 1 165 -1 156 q 19 190 7 179 q 46 199 31 199 q 61 197 54 199 q 81 188 84 189 q 80 214 77 187 q 96 245 81 232 q 127 258 110 258 q 164 240 149 258 q 175 214 174 229 q 174 186 178 184 q 194 197 171 187 q 208 199 202 199 q 236 190 222 199 m 146 102 q 158 125 158 113 q 151 145 158 136 q 128 155 140 155 q 106 146 115 155 q 98 125 98 138 q 105 106 98 115 q 128 95 115 95 q 146 102 138 95 "},"":{"ha":239,"x_min":-1,"x_max":241,"o":"m 127 248 q 136 230 132 240 q 143 214 140 220 q 154 201 146 209 q 160 197 155 199 q 168 193 165 195 q 172 188 171 191 q 172 187 172 188 q 172 186 172 186 q 169 179 172 182 q 161 176 166 177 q 151 174 157 175 q 158 160 153 166 q 175 146 163 155 q 191 133 186 137 q 198 123 195 129 q 190 116 198 116 q 184 116 188 116 q 179 117 180 117 q 176 116 176 117 q 190 100 178 108 q 212 84 201 92 q 225 68 223 76 q 225 66 225 67 q 218 60 225 60 q 214 60 217 60 q 208 60 210 60 q 204 60 206 60 q 214 44 205 52 q 231 30 222 37 q 241 15 240 22 q 231 8 240 9 q 204 6 221 6 q 192 6 200 6 q 181 7 184 7 q 164 5 166 7 l 164 -17 q 161 -18 163 -18 q 157 -16 160 -18 q 151 -14 154 -14 q 134 -12 142 -14 q 127 -7 132 -7 q 120 -9 124 -7 q 112 -12 117 -10 q 105 -14 106 -14 q 93 -17 97 -17 q 90 -16 92 -17 l 90 7 q 65 5 83 6 q 33 2 47 3 q 15 1 19 1 q 3 3 7 1 q -1 10 -1 5 q 12 26 -1 18 q 22 31 18 28 q 27 34 26 33 q 31 38 29 36 q 35 44 32 40 q 22 47 26 44 q 18 53 18 50 q 19 55 18 54 q 36 67 31 63 q 45 74 42 71 q 50 80 48 77 q 52 91 51 84 q 45 92 50 92 q 39 93 40 92 q 33 101 33 97 q 38 110 33 105 q 53 123 43 115 q 67 134 63 130 q 73 142 72 138 q 67 142 70 142 q 61 142 64 142 q 56 142 58 142 q 52 145 52 142 q 54 152 52 147 q 66 164 56 156 q 81 176 76 172 q 85 187 85 181 q 85 191 85 188 q 70 197 70 191 q 72 203 70 200 q 84 219 77 213 q 97 231 92 226 q 108 248 102 236 q 116 254 111 254 q 127 248 121 254 m 81 153 q 85 151 82 151 q 91 153 87 152 q 98 154 94 153 q 129 155 113 157 q 133 155 131 155 q 137 159 136 156 q 136 168 138 163 q 133 176 136 172 q 124 179 130 179 q 98 171 108 175 q 84 163 88 168 q 81 153 81 159 m 196 72 q 196 74 196 73 q 196 74 196 74 q 191 84 196 79 q 174 94 185 88 q 156 105 163 100 q 143 118 149 111 q 134 127 137 127 q 131 125 132 127 q 127 117 130 123 q 122 107 125 111 q 121 104 121 106 q 127 98 121 100 q 142 95 132 95 q 148 95 146 95 q 161 92 157 95 q 175 78 165 88 q 189 68 184 68 q 196 72 192 68 m 85 85 q 74 78 81 82 q 63 70 66 73 q 60 62 60 66 q 64 55 60 58 q 81 50 68 50 q 114 54 91 50 q 144 58 137 58 q 152 62 152 58 q 150 66 152 65 q 132 69 142 69 q 121 68 128 69 q 111 68 114 68 q 105 71 108 68 q 100 78 102 73 q 96 85 98 82 q 90 88 94 88 q 85 85 89 88 m 212 30 q 203 37 208 35 q 194 35 201 37 q 181 35 188 33 q 165 37 176 35 q 154 41 159 41 q 137 38 142 42 q 130 30 132 35 q 137 23 130 25 q 197 18 174 20 q 210 19 205 18 q 214 21 214 20 q 212 30 214 25 "},"":{"ha":256,"x_min":1,"x_max":258,"o":"m 130 -7 q 47 97 94 62 q 1 179 1 132 q 19 235 1 216 q 65 254 38 254 q 130 193 113 254 q 193 254 145 254 q 239 235 220 254 q 258 179 258 216 q 211 97 258 132 q 130 -7 165 62 "},"":{"ha":254,"x_min":-1,"x_max":256,"o":"m 127 -7 q 46 97 92 62 q -1 179 -1 132 q 18 235 -1 216 q 63 254 37 254 q 127 215 112 254 q 192 254 144 254 q 237 235 218 254 q 256 179 256 216 q 210 97 256 132 q 127 -7 163 62 m 126 161 q 54 213 85 227 q 33 172 22 200 q 65 127 43 144 q 127 62 88 109 q 188 131 157 106 q 222 177 219 155 q 200 215 226 199 q 126 161 175 231 "},"":{"ha":343,"x_min":-4,"x_max":346,"o":"m 227 224 q 273 168 248 224 q 296 153 288 153 q 345 186 325 153 l 346 186 l 346 178 q 301 87 346 137 q 248 64 278 64 q 174 123 211 64 l 168 123 q 88 68 130 68 l 81 68 q 10 130 39 68 q -4 186 3 140 l -4 188 l -1 188 q 51 151 16 151 l 52 151 q 85 203 66 151 q 127 220 102 220 l 130 220 q 171 184 155 220 q 227 224 199 224 "},"":{"ha":334,"x_min":0,"x_max":264,"o":"m 90 266 l 96 266 q 130 232 117 266 q 142 186 140 208 q 156 210 149 198 q 209 244 177 244 q 232 213 232 241 q 245 199 232 199 q 264 170 264 190 q 201 127 264 137 l 193 127 q 176 125 184 126 q 203 116 192 119 q 242 81 235 96 q 242 48 248 66 q 204 29 237 30 q 198 18 202 29 q 184 3 195 7 q 169 -1 174 0 q 155 1 164 -1 q 136 17 145 3 q 125 68 125 36 l 124 68 l 122 62 q 121 4 121 16 q 119 3 119 4 q 104 9 104 5 q 113 69 113 53 l 113 73 l 111 73 q 92 40 111 61 q 54 21 73 23 q 26 51 31 21 l 26 57 q 25 62 26 58 q 18 70 28 66 q 4 79 7 74 q 0 94 0 85 l 0 99 q 29 131 0 122 q 81 142 49 138 l 87 144 q 35 172 51 152 q 17 201 17 186 q 60 236 22 235 q 82 264 64 256 l 90 266 "},"":{"ha":248,"x_min":-1,"x_max":249,"o":"m 102 210 q 105 199 102 205 q 113 191 108 194 q 124 189 118 189 q 135 191 130 189 q 143 199 140 194 q 146 210 146 205 q 143 221 146 216 q 135 229 140 227 q 124 232 130 232 q 113 229 118 232 q 105 221 108 227 q 102 210 102 216 m 110 166 q 102 171 108 167 q 85 187 91 176 q 79 210 79 198 q 85 232 79 221 q 102 249 91 243 q 124 254 113 254 q 146 249 136 254 q 163 232 157 243 q 169 210 169 221 q 163 187 169 198 q 146 171 157 176 q 140 166 140 167 l 140 154 l 186 154 l 186 121 l 141 121 l 141 26 q 173 35 156 28 q 197 54 186 43 l 183 68 l 249 83 l 234 17 l 220 30 q 190 7 210 20 q 125 -7 158 -7 q 56 12 92 -7 q 28 31 40 20 l 14 17 l -1 83 l 65 68 l 54 56 q 77 39 63 46 q 112 27 98 28 l 112 121 l 62 121 l 62 154 l 110 154 l 110 166 "},"":{"ha":253,"x_min":0,"x_max":254,"o":"m 127 254 q 191 237 160 254 q 238 190 221 221 q 254 125 254 159 q 238 60 254 90 q 191 13 221 29 q 127 -4 160 -4 q 63 13 94 -4 q 16 60 33 29 q 0 125 0 90 q 16 190 0 159 q 63 237 33 221 q 127 254 94 254 m 111 223 q 73 212 91 222 q 39 178 51 200 q 27 132 27 157 q 39 85 27 106 q 47 72 43 77 l 111 134 l 111 223 m 61 50 q 76 40 68 44 q 113 28 94 30 l 113 102 l 61 50 m 140 28 q 178 40 159 30 q 193 50 186 44 l 140 102 l 140 28 m 205 72 q 214 85 210 77 q 225 132 225 106 q 213 178 225 157 q 180 212 201 200 q 142 224 161 222 l 142 135 l 205 72 "},"":{"ha":234,"x_min":0,"x_max":226,"o":"m 149 282 l 156 282 l 176 258 l 178 258 q 213 271 210 271 l 215 271 q 222 264 218 271 l 222 260 q 185 235 222 255 l 160 182 q 179 165 168 180 q 222 189 202 190 l 226 182 q 197 136 218 154 q 174 39 200 80 q 108 0 148 -2 q 33 84 52 11 l 28 122 q 16 146 27 134 q 3 180 5 159 l 9 184 q 48 163 30 182 q 65 179 51 174 q 24 232 41 239 q 0 258 0 242 l 9 264 l 41 258 q 58 280 52 278 l 64 280 q 74 264 70 280 q 60 239 60 244 q 92 193 68 220 q 129 194 111 197 q 158 244 158 238 q 142 275 141 267 q 149 282 142 279 "},"":{"ha":283,"x_min":0,"x_max":269,"o":"m 189 301 l 195 301 q 213 281 210 301 l 213 279 q 197 257 213 267 l 184 220 l 202 210 q 239 235 215 235 q 269 204 264 235 q 242 169 267 177 l 237 169 q 238 154 238 156 q 202 35 241 106 q 140 0 174 0 l 136 0 q 54 73 86 0 q 41 136 40 115 q 42 176 40 156 l 41 176 q 33 174 37 174 q 0 208 0 181 q 31 241 5 241 l 35 241 q 66 213 60 241 l 66 207 q 94 222 79 217 l 79 255 q 62 275 66 256 q 86 298 62 294 q 106 279 106 294 q 103 260 110 270 l 116 229 q 161 228 142 233 l 174 267 q 171 277 171 272 l 171 283 q 189 301 174 301 m 163 143 q 183 121 166 121 q 207 143 204 120 l 207 147 q 183 167 205 168 q 163 143 164 167 m 72 150 l 72 146 q 90 123 71 127 l 94 123 q 115 140 112 125 l 116 152 q 94 170 116 168 l 92 170 q 72 150 72 168 "},"":{"ha":347,"x_min":0,"x_max":184,"o":"m 161 279 q 180 256 180 273 l 145 162 l 145 157 q 184 88 184 132 l 184 79 q 124 3 184 31 q 99 -1 115 -1 l 87 -1 q 2 73 22 -1 q 0 86 2 74 q 41 160 0 130 l 41 169 q 2 250 41 176 l 2 254 q 37 277 2 277 q 64 215 58 277 q 78 174 66 214 l 94 176 q 108 174 106 174 q 127 236 120 174 q 147 277 132 277 q 161 279 151 279 m 106 111 q 123 90 106 97 q 146 112 145 91 q 131 130 145 125 l 126 130 q 106 111 106 130 m 38 110 l 38 102 q 58 90 45 90 q 76 110 73 90 q 56 130 75 130 q 38 110 40 130 "},"":{"ha":292,"x_min":-2,"x_max":302,"o":"m 145 248 q 172 237 157 248 q 200 249 182 249 l 205 249 q 229 233 229 243 q 219 225 230 224 q 206 230 212 227 q 190 230 199 233 q 181 209 181 227 l 181 201 l 184 190 l 198 190 q 274 155 246 190 q 294 70 302 121 q 270 14 289 25 q 231 1 250 3 q 123 1 212 -1 q 49 25 77 2 q 23 97 11 58 l 26 115 q -2 169 -2 132 l -1 175 q 9 172 0 178 q 36 145 28 150 q 73 188 52 144 q 81 178 81 188 q 54 119 79 150 q 51 106 52 115 q 51 91 50 97 q 58 82 52 84 q 72 84 65 79 q 78 105 79 90 q 94 149 77 121 q 158 190 110 178 l 163 190 q 146 228 165 228 l 141 228 l 132 223 l 127 220 q 119 225 123 220 l 120 234 q 145 248 127 246 m 198 110 q 224 83 199 84 q 246 107 244 87 q 220 133 248 127 q 198 110 204 127 "},"":{"ha":280,"x_min":0,"x_max":281,"o":"m 65 250 q 81 199 81 243 q 73 132 81 180 l 73 130 q 82 121 74 121 q 103 161 88 145 q 100 184 100 178 l 103 185 l 108 185 q 120 172 120 176 l 130 174 l 129 195 l 137 197 l 140 197 q 148 191 143 197 l 148 178 l 155 178 q 170 199 157 199 q 178 173 177 194 l 180 173 q 199 185 195 185 q 206 180 206 182 q 195 161 206 172 q 239 94 234 142 q 243 92 239 94 q 251 101 251 96 q 241 136 251 117 q 239 142 239 138 l 245 146 l 247 146 q 281 100 272 146 q 250 39 281 56 q 233 22 233 35 q 237 1 237 3 l 233 -1 l 202 -1 q 177 16 177 1 q 185 24 177 16 q 170 31 185 29 q 137 17 137 31 q 127 0 130 0 l 101 0 q 79 10 79 0 q 85 29 85 24 q 29 101 29 50 l 29 106 q 41 172 29 121 l 41 176 l 38 182 l 29 180 l 9 180 q 0 194 0 184 l 0 195 q 35 250 0 225 q 65 250 49 255 m 26 216 l 26 213 q 35 206 26 210 l 40 206 q 50 213 45 206 l 50 222 q 38 229 50 229 q 26 216 26 227 m 125 130 l 125 129 q 144 117 125 123 q 168 139 168 125 q 151 147 163 147 q 125 130 131 147 m 180 129 q 175 110 175 115 l 177 101 q 195 121 195 101 q 185 129 194 129 l 180 129 "},"":{"ha":343,"x_min":0,"x_max":347,"o":"m 156 253 q 197 234 179 253 q 180 223 197 229 l 180 220 l 208 223 l 241 223 q 343 165 329 223 q 327 39 347 121 q 323 16 327 32 q 327 5 327 12 l 321 3 l 280 3 q 274 8 274 3 l 274 28 q 230 75 269 75 l 219 75 q 175 14 175 75 l 175 0 l 128 0 q 117 77 121 0 q 98 58 100 58 l 92 60 q 104 91 104 84 q 45 47 75 47 q 0 113 0 54 l 0 130 q 33 182 0 182 l 41 182 l 47 179 q 33 116 33 146 q 60 91 43 91 q 73 130 65 91 q 68 163 68 160 q 112 229 76 229 q 156 253 146 253 m 102 184 l 102 174 q 126 161 107 161 q 140 174 131 161 l 140 184 q 126 197 140 189 l 115 197 q 102 184 109 197 "},"":{"ha":317,"x_min":0,"x_max":282,"o":"m 252 248 l 271 248 q 282 232 282 243 q 217 106 266 149 q 203 98 208 98 q 250 8 243 40 q 239 -3 250 4 q 146 50 180 -3 q 57 0 111 0 l 49 11 l 49 22 q 84 91 49 45 q 8 195 33 112 q 0 233 8 203 l 0 239 q 5 244 1 244 l 8 244 q 90 215 42 244 q 138 153 138 186 q 146 151 141 153 q 252 248 161 201 "},"":{"ha":322,"x_min":0,"x_max":322,"o":"m 267 277 q 322 222 322 269 l 322 216 q 267 167 313 167 l 261 167 l 261 165 q 279 106 279 138 q 212 9 279 44 q 165 0 188 0 q 57 85 89 0 q 55 110 55 109 q 68 161 55 127 l 65 159 l 49 159 q 0 210 12 159 l 0 214 q 49 269 7 269 l 61 269 q 110 212 101 269 l 108 199 q 165 214 137 214 l 173 214 q 216 204 186 214 l 216 206 q 214 214 214 210 l 214 228 q 267 277 214 264 "},"":{"ha":173,"x_min":0,"x_max":174,"o":"m 77 299 l 77 299 q 89 283 79 299 q 95 277 94 277 q 98 278 96 277 q 121 274 111 276 l 121 274 q 142 282 133 282 q 148 285 142 282 q 151 278 151 285 q 134 233 151 272 l 133 223 q 151 181 133 208 q 155 154 155 167 l 155 150 q 154 138 155 145 q 165 121 154 132 q 174 100 174 111 l 174 83 q 142 39 174 62 q 102 1 142 17 q 87 0 92 0 l 77 0 q 33 15 56 0 q 0 70 0 45 l 0 81 q 22 123 0 104 q 27 124 24 124 q 28 121 28 123 q 19 89 19 104 l 19 81 q 37 39 19 57 q 81 21 56 23 q 102 32 96 21 l 100 33 l 94 33 q 45 58 64 31 q 37 89 37 72 l 37 92 q 53 138 37 110 l 52 146 l 52 153 q 71 194 52 164 q 77 210 77 205 q 64 229 77 216 q 59 245 59 238 l 59 256 q 77 299 59 286 "},"":{"ha":232,"x_min":-2,"x_max":242,"o":"m 216 260 l 219 260 q 231 235 224 260 l 231 227 q 209 186 231 204 l 208 184 q 238 177 230 184 q 242 172 241 177 q 216 164 242 168 q 201 137 206 164 l 199 113 q 193 58 197 89 l 190 26 q 178 6 190 17 q 159 1 162 1 q 132 6 147 1 q 127 7 130 7 l 125 7 q 107 -1 122 7 l 99 -1 q 68 16 77 -1 l 63 46 q 51 109 58 76 q 35 153 46 135 q 20 159 26 159 l 16 159 q 5 153 15 159 l 3 153 q -2 158 2 153 l -2 161 q 24 180 8 175 l 28 180 q 9 213 9 198 l 9 218 q 20 254 9 242 q 32 260 31 260 q 35 256 35 260 q 31 241 31 243 q 49 205 31 208 q 60 202 49 205 q 79 210 62 202 q 123 218 102 216 l 152 216 q 179 209 160 216 l 179 208 q 205 219 198 208 q 213 241 213 231 l 213 243 l 212 256 q 216 260 214 260 m 142 43 q 157 28 144 28 l 159 28 q 174 42 174 31 l 174 44 q 159 59 170 59 q 142 43 142 56 m 83 39 q 100 24 83 28 l 102 24 q 119 41 115 24 q 102 58 115 58 l 100 58 q 83 39 83 56 "},"":{"ha":281,"x_min":0,"x_max":283,"o":"m 65 291 l 66 291 q 116 281 77 291 l 127 281 q 153 279 144 279 l 174 279 q 245 248 214 277 q 273 198 273 224 q 272 184 273 195 q 283 163 275 184 q 277 157 283 160 l 274 157 q 252 165 267 157 l 236 174 q 221 179 235 174 q 203 146 214 157 q 190 139 195 139 q 189 149 189 142 l 189 180 l 187 180 q 172 158 184 178 q 149 147 159 147 l 142 147 q 141 149 141 147 q 146 170 144 158 l 146 171 l 123 166 q 90 144 101 162 l 77 126 q 57 72 58 92 q 84 51 74 66 q 94 31 92 41 q 92 29 94 29 q 77 35 79 35 q 54 28 75 35 q 44 34 50 29 l 43 34 q 18 17 43 27 q 6 1 10 9 l 4 0 l 3 0 q 0 7 0 1 l 0 30 q 16 61 3 51 l 31 70 q 30 71 31 71 q 29 90 29 86 l 29 115 q 45 209 29 171 q 68 250 52 222 q 69 257 69 255 q 44 286 69 267 q 65 291 44 290 "},"":{"ha":364,"x_min":0,"x_max":364,"o":"m 297 276 l 288 254 q 294 245 289 250 q 309 231 298 240 q 324 214 319 221 q 330 202 330 207 q 328 196 330 198 q 321 193 326 193 q 309 197 318 193 q 295 202 300 200 q 283 203 290 203 q 286 164 286 187 q 277 108 286 127 q 304 54 291 75 q 344 89 326 66 l 364 72 q 317 27 343 45 q 260 1 290 9 q 198 -7 229 -7 q 144 -1 171 -7 q 91 16 117 5 q 43 43 65 27 q 0 77 20 58 l 16 101 q 71 62 45 76 q 77 77 76 72 q 80 112 79 83 q 88 149 81 140 q 96 162 95 158 q 83 180 90 180 q 74 176 79 180 q 61 163 68 171 q 43 155 54 155 q 16 174 31 155 q 41 181 31 174 q 59 199 52 189 q 72 218 66 209 q 85 229 79 228 q 95 225 92 229 q 107 204 99 221 q 116 185 115 188 q 137 172 121 176 q 175 167 154 167 q 212 172 196 167 q 230 186 227 176 q 248 231 237 206 q 266 256 257 256 q 280 264 274 256 q 297 276 286 272 m 237 89 q 203 82 225 81 q 163 84 182 82 q 131 94 144 85 l 102 44 q 122 35 107 40 q 157 26 136 29 q 199 22 178 22 q 277 42 247 22 l 267 54 l 258 66 l 237 89 "},"":{"ha":376,"x_min":-1,"x_max":380,"o":"m 1 205 l 24 205 l 48 205 l 64 205 l 88 205 q 126 203 101 205 q 153 155 138 155 l 157 155 q 176 158 163 155 l 176 169 q 180 180 176 180 l 184 173 l 195 173 l 202 182 l 203 178 l 203 162 q 224 153 205 155 l 228 153 q 259 196 252 153 q 262 203 259 203 l 290 203 l 311 203 q 376 202 334 203 q 380 196 380 199 q 328 135 342 167 l 325 111 l 325 91 q 322 79 325 85 l 313 81 l 286 85 q 224 66 249 85 l 214 49 q 199 2 202 24 l 196 0 l 193 0 l 173 41 q 107 83 145 83 q 66 85 90 85 l 60 85 q 58 109 57 85 q 50 148 58 132 q 10 195 41 163 q -1 203 -1 198 l 1 205 "},"":{"ha":155,"x_min":0,"x_max":200,"o":"m 57 279 q 68 248 60 275 l 72 235 l 75 222 l 88 222 l 100 222 l 113 222 l 126 222 l 130 245 l 133 258 q 144 279 135 269 q 180 258 166 273 l 195 244 l 194 219 l 194 207 q 193 181 193 195 q 200 117 200 136 q 170 75 197 106 q 162 44 162 59 l 162 41 q 168 18 162 35 q 143 3 146 3 q 118 19 138 21 l 93 20 l 75 19 q 57 3 57 19 q 55 0 55 3 l 52 0 q 36 19 36 15 q 39 33 39 29 l 39 39 q 5 110 39 66 q 0 134 0 124 q 8 172 0 138 l 8 210 l 8 228 l 8 247 q 57 279 26 264 m 31 175 l 31 173 q 26 147 31 171 q 59 138 47 138 l 63 138 q 82 150 71 138 l 103 150 l 125 150 q 149 139 130 139 l 161 139 q 179 149 173 139 q 175 174 177 174 q 113 165 146 165 l 95 165 q 50 170 71 165 l 31 175 m 62 41 l 62 38 q 100 49 69 49 l 121 49 q 140 38 135 45 l 142 41 l 142 43 q 131 61 132 61 l 120 61 l 102 61 l 85 61 l 75 61 l 74 61 q 62 41 73 61 "},"":{"ha":229,"x_min":0,"x_max":268,"o":"m 123 262 l 132 262 l 141 262 l 159 262 q 188 256 177 262 l 198 252 l 208 248 l 216 244 l 229 245 l 242 248 l 254 250 l 267 251 l 268 250 q 268 249 268 250 l 268 248 l 267 239 l 264 231 l 263 222 l 261 212 l 260 203 l 258 195 l 256 186 q 253 172 254 176 l 251 169 l 247 167 q 243 158 243 165 l 243 151 l 243 139 l 242 127 l 241 115 l 241 103 l 240 91 l 239 79 l 239 67 q 237 55 238 55 l 235 55 l 229 50 l 222 43 l 216 38 l 209 32 l 203 26 l 196 20 l 190 15 q 177 5 183 9 l 172 0 l 149 -1 q 109 0 126 -1 l 92 1 l 83 8 l 76 15 l 68 22 l 60 29 l 52 37 l 44 43 l 37 51 q 28 58 28 58 l 28 60 l 28 62 l 28 66 l 28 77 l 28 87 l 27 98 l 26 110 l 26 121 l 26 132 l 25 142 l 25 153 l 20 157 q 15 170 16 161 l 14 178 l 13 186 l 12 195 l 9 207 l 6 220 l 3 232 l 0 245 l 1 245 q 2 245 2 245 l 2 247 l 4 246 q 7 245 6 245 l 7 245 l 16 245 q 39 245 26 245 l 52 244 l 62 248 l 72 253 l 81 257 q 108 262 92 262 l 123 262 m 213 232 l 213 229 l 213 225 l 208 221 q 195 211 204 216 l 186 206 l 178 201 l 169 195 l 160 191 l 151 185 l 142 180 l 134 175 l 125 181 l 115 188 l 106 195 l 96 201 l 77 214 l 58 227 l 57 227 l 55 227 l 54 215 l 54 212 l 65 203 q 91 185 76 195 l 106 176 l 121 166 l 136 156 l 146 163 l 156 169 l 166 175 l 176 182 l 186 188 l 196 194 l 206 201 q 217 208 216 207 l 218 210 l 218 225 l 218 232 l 216 232 l 213 232 m 101 230 l 101 229 q 109 222 101 229 l 117 216 l 125 209 l 134 202 l 144 208 l 153 214 l 163 220 l 173 227 l 173 227 l 173 227 l 170 228 q 166 228 167 228 l 166 228 l 155 228 q 133 229 144 228 l 122 229 l 112 229 l 101 230 m 43 157 l 43 155 l 43 151 l 53 142 l 63 134 l 62 130 q 61 126 61 127 l 61 125 l 71 118 l 81 111 l 83 111 l 87 111 l 88 111 q 96 114 89 111 l 102 117 l 108 121 l 115 125 l 115 125 l 115 126 l 115 130 q 109 133 115 133 l 103 133 l 94 134 l 85 135 l 76 136 q 65 140 70 135 l 63 142 l 60 144 q 50 152 58 147 l 43 157 m 222 152 l 214 145 q 202 138 206 138 l 198 138 l 196 138 q 184 135 194 137 l 176 134 l 167 132 l 158 130 l 158 130 l 157 129 l 157 127 l 157 126 l 164 123 l 170 119 l 176 115 q 184 111 183 112 l 185 111 l 186 111 l 186 111 l 189 111 l 191 111 l 194 111 q 203 117 197 111 l 210 123 l 210 129 l 210 135 l 217 141 l 225 147 l 224 149 q 223 152 224 152 l 222 152 m 107 52 l 105 37 l 103 31 l 101 26 l 100 20 l 100 20 q 104 18 101 20 l 106 15 l 107 15 q 111 24 108 15 l 113 33 l 115 33 l 115 34 l 134 34 l 153 34 l 154 33 l 155 33 l 156 32 q 160 22 157 31 l 163 12 l 163 12 l 164 12 l 168 14 q 172 16 172 16 l 172 17 l 166 30 q 161 52 161 51 l 160 52 l 153 52 l 146 52 l 140 52 l 134 52 l 127 52 l 121 52 l 114 52 l 107 52 "},"":{"ha":276,"x_min":-1,"x_max":279,"o":"m 237 199 q 275 125 279 169 q 193 40 275 64 q 157 34 172 34 l 125 33 l 80 37 q 32 60 58 45 l 16 79 l 6 99 q 0 128 0 113 q 27 192 -1 165 l 46 205 l 65 215 q 132 224 85 224 l 169 224 q 237 199 205 220 m 50 132 q 61 119 56 119 q 73 115 66 118 q 87 123 77 115 l 111 123 l 135 123 l 159 123 l 182 123 q 197 111 184 116 l 205 112 q 219 130 216 115 l 219 143 q 198 158 214 157 q 182 142 182 154 l 159 142 l 136 142 l 113 142 l 90 142 l 90 148 q 80 159 90 153 q 62 160 69 164 q 52 150 54 157 q 50 132 50 144 "},"":{"ha":347,"x_min":0,"x_max":347,"o":"m 60 256 l 118 256 l 175 256 l 232 256 l 290 256 q 308 237 295 251 l 321 222 l 334 208 l 347 193 l 347 190 l 305 142 l 264 95 l 222 47 l 180 0 l 168 0 l 151 19 q 101 77 134 38 l 67 116 l 34 155 l 0 194 l 0 195 q 31 226 0 196 l 45 241 l 60 256 m 31 195 q 57 168 31 194 q 56 179 56 175 q 99 237 56 208 l 100 237 l 100 237 l 73 237 q 50 216 68 237 q 31 195 31 196 m 107 203 l 107 203 q 127 185 109 185 q 186 180 148 181 l 224 180 q 267 158 254 174 q 276 146 275 146 l 297 171 l 318 195 l 300 214 l 282 233 l 282 196 q 280 194 282 194 l 230 194 q 228 196 228 194 l 228 208 q 203 230 218 225 l 187 235 l 182 236 q 168 237 176 237 q 115 221 141 237 q 107 203 107 212 m 227 237 l 227 237 l 244 218 l 246 218 q 256 235 249 220 l 256 237 l 227 237 m 81 140 q 110 107 101 115 q 123 115 111 115 l 135 115 q 170 99 151 115 q 180 98 176 98 l 204 98 q 237 111 222 98 l 240 115 q 207 134 235 134 l 191 134 q 136 134 163 134 q 81 140 105 134 m 131 81 q 153 58 131 79 q 174 37 172 37 l 180 37 q 218 81 193 48 l 216 81 q 185 76 216 78 l 173 76 q 132 81 158 76 l 131 81 "},"":{"ha":297,"x_min":-3,"x_max":258,"o":"m 121 267 l 135 267 l 166 263 q 214 239 195 255 q 245 193 233 223 q 256 141 256 164 l 256 140 q 250 87 258 105 q 228 56 243 69 l 200 33 q 190 0 200 0 q 172 10 172 0 q 168 20 172 19 l 164 20 q 157 2 162 20 q 140 0 155 2 q 130 17 133 0 l 127 19 l 123 19 q 118 0 120 19 l 117 0 q 98 17 98 0 q 93 19 96 17 q 84 3 87 19 q 67 0 81 1 l 64 5 l 64 16 q 50 39 64 35 q 4 108 12 67 l 1 141 q 30 227 -3 195 q 89 262 49 245 q 121 267 111 267 m 137 158 l 137 150 q 181 111 137 117 q 222 150 222 119 l 222 153 q 190 196 222 184 l 174 196 q 137 158 137 186 m 52 153 l 52 151 q 75 126 58 126 l 85 126 q 110 157 106 126 q 81 182 110 176 q 52 153 52 178 "},"":{"ha":338,"x_min":0,"x_max":303,"o":"m 159 303 q 294 206 243 303 q 303 151 303 176 q 220 14 303 64 q 148 0 194 0 q 11 84 49 0 q 0 154 0 122 q 95 292 0 245 q 159 303 127 303 m 160 277 q 252 167 222 233 q 271 99 271 130 l 272 99 q 286 146 286 119 l 286 153 q 203 275 272 223 q 184 281 200 275 q 160 277 167 277 m 19 184 q 47 208 47 202 q 125 282 56 237 l 123 282 q 33 217 66 265 q 19 184 19 192 m 115 249 l 115 246 q 223 64 189 195 q 245 79 240 64 q 250 84 248 79 q 181 226 214 193 q 140 262 149 260 l 115 249 m 99 236 q 85 221 99 235 q 79 201 79 214 q 163 67 127 170 q 203 62 189 62 l 203 63 q 118 222 186 151 l 102 236 l 99 236 m 25 165 l 25 141 q 72 159 34 145 l 72 161 q 53 182 57 182 q 25 165 26 169 m 28 117 q 54 72 28 99 l 55 72 q 105 113 71 81 q 83 141 89 137 l 81 141 q 28 117 71 141 m 72 51 q 97 33 72 50 q 131 60 131 58 q 121 90 131 63 q 72 51 82 56 m 124 18 q 148 14 139 14 l 153 14 q 242 45 180 14 l 242 47 q 155 38 185 24 q 124 18 125 21 "},"":{"ha":379,"x_min":0,"x_max":301,"o":"m 151 304 q 285 223 235 304 q 301 153 301 189 q 201 10 301 52 q 146 0 169 0 q 42 43 96 0 q 0 153 0 88 l 0 159 q 45 260 0 219 q 151 304 97 304 m 123 267 l 123 248 q 156 232 125 248 q 203 244 181 239 l 203 262 q 159 279 203 275 q 150 281 158 281 q 123 267 144 277 m 80 261 q 42 221 52 239 l 37 212 l 39 212 q 63 211 47 212 l 96 244 l 96 256 l 97 258 q 80 261 87 261 m 162 178 q 200 138 199 138 q 227 149 227 138 q 241 199 241 196 q 213 219 215 219 q 172 209 179 214 q 162 178 172 206 m 267 195 q 245 115 245 118 q 263 90 251 90 l 266 89 q 281 140 281 117 l 281 147 q 270 193 281 193 l 267 195 m 27 178 q 22 143 24 159 q 34 98 22 123 l 39 98 q 57 107 57 98 l 71 154 q 57 179 59 178 l 56 179 q 27 178 46 179 m 87 96 l 111 72 q 178 87 175 85 l 188 115 q 147 159 180 121 q 100 149 102 152 q 87 96 98 140 m 94 31 q 157 21 126 21 q 205 30 205 25 q 207 41 207 35 l 207 41 q 184 51 207 43 q 95 33 95 39 l 94 31 "},"":{"ha":309,"x_min":0,"x_max":310,"o":"m 229 285 q 305 256 274 285 q 310 218 310 234 q 241 60 310 135 q 130 5 189 16 q 103 0 117 0 l 101 0 q 1 43 14 0 q 0 60 0 54 l 0 63 q 108 253 0 179 q 229 285 149 285 m 218 262 q 250 227 235 250 l 269 248 q 220 262 250 262 l 218 262 m 54 155 q 92 92 88 95 q 106 102 106 101 l 106 104 q 96 125 96 119 q 101 131 98 131 l 106 131 l 118 112 q 130 125 130 120 q 121 144 121 139 l 121 147 q 125 150 122 150 l 127 150 q 140 131 132 149 q 153 140 146 133 l 153 142 q 142 161 142 154 q 146 168 144 168 l 150 168 q 165 150 152 168 q 177 161 168 150 q 165 178 171 164 q 172 186 169 186 l 174 186 q 183 172 183 180 l 186 172 q 216 204 216 202 q 168 249 189 248 q 57 164 123 246 q 54 155 54 159 m 267 205 q 281 180 274 198 l 285 180 l 287 216 l 286 227 q 267 205 283 227 m 209 148 l 226 129 q 218 121 223 121 q 199 137 216 121 l 197 137 q 188 127 195 137 q 202 110 188 126 q 196 100 199 100 q 174 118 187 105 q 164 107 164 108 q 179 96 166 107 l 179 92 q 172 83 178 87 q 153 98 163 88 l 152 98 q 142 90 142 92 q 157 74 157 77 q 149 66 154 66 q 128 80 146 66 q 111 67 112 72 q 151 33 144 35 q 254 122 222 61 l 258 132 q 235 177 237 177 q 209 148 212 148 m 32 125 q 24 82 26 111 q 31 55 23 68 q 60 69 58 69 l 60 73 q 33 125 33 116 l 32 125 m 48 36 l 48 33 q 109 20 77 20 l 114 20 q 75 49 114 22 q 48 36 52 36 "},"":{"ha":300,"x_min":0,"x_max":293,"o":"m 138 293 l 156 293 q 284 203 235 293 q 293 152 293 175 l 293 141 q 199 7 293 53 q 153 0 174 0 l 140 0 q 15 78 62 0 q 0 138 0 106 l 0 155 q 78 278 0 231 q 138 293 106 293 m 83 172 q 80 183 80 177 l 82 207 q 96 260 81 234 l 95 260 q 59 229 64 248 q 53 197 53 205 l 53 173 l 54 170 l 52 169 q 29 188 43 169 q 22 162 29 186 q 57 136 36 138 q 66 109 60 132 q 62 107 63 107 q 26 121 50 107 l 31 94 q 58 84 38 86 q 78 81 78 87 q 85 68 85 71 q 61 50 71 61 q 84 33 81 33 q 104 43 93 43 q 142 21 122 25 q 179 28 170 24 q 136 54 156 33 l 151 56 q 224 53 183 60 l 239 71 q 218 75 222 75 q 132 75 163 81 l 117 75 q 106 92 113 76 q 241 143 188 102 q 265 168 265 163 q 254 197 258 197 q 139 125 203 140 q 89 117 113 117 q 83 138 83 135 q 112 158 92 140 q 144 204 132 176 q 195 248 155 232 q 219 256 219 255 l 195 268 q 119 212 142 248 q 89 173 106 178 q 83 172 86 172 "},"":{"ha":300,"x_min":0,"x_max":299,"o":"m 92 256 l 98 256 q 153 242 126 256 q 197 250 178 250 q 288 197 252 250 q 299 158 299 176 l 299 155 q 272 76 299 123 q 271 69 271 74 q 298 27 271 62 l 298 24 q 265 0 290 17 q 238 50 239 50 q 195 46 208 46 q 144 60 169 46 q 100 47 121 47 q 73 52 99 47 q 50 11 63 52 q 46 7 48 11 q 5 26 24 11 l 5 27 l 30 62 q 31 75 31 70 l 31 79 q 0 150 0 111 l 0 151 q 41 242 0 211 q 92 256 65 256 m 27 169 l 28 152 q 96 127 28 150 l 94 146 q 118 225 88 194 q 126 231 123 231 q 92 237 125 236 q 31 199 46 235 q 27 169 26 180 m 116 148 l 116 143 q 146 87 116 102 l 260 182 q 202 227 243 227 l 195 227 q 116 148 116 227 "},"":{"ha":300,"x_min":0,"x_max":286,"o":"m 146 282 q 267 207 213 282 q 286 136 286 168 q 224 28 286 84 q 139 0 189 0 l 135 0 q 14 81 56 0 q 0 140 0 113 q 41 241 0 186 q 146 282 84 282 m 151 257 l 132 244 l 140 236 l 149 241 l 153 236 l 146 231 l 155 220 l 160 227 l 166 220 l 163 214 l 169 208 l 176 212 l 176 212 l 183 206 l 178 198 l 183 195 l 190 201 l 194 196 l 189 189 l 194 184 l 201 191 l 206 184 l 200 177 l 205 172 l 212 178 l 218 172 l 214 165 l 221 157 l 227 164 l 234 158 l 228 150 l 239 142 l 245 151 l 257 151 l 261 157 l 255 163 l 258 172 l 252 178 l 245 172 l 236 180 l 243 189 l 235 196 l 227 190 l 217 197 l 227 205 l 219 212 l 210 208 l 203 212 l 212 218 l 208 222 l 199 218 l 194 222 l 202 227 l 195 233 l 188 227 l 183 232 l 191 237 l 186 240 l 180 237 q 176 241 176 239 l 181 245 l 176 250 l 170 245 q 164 251 168 245 q 171 254 170 254 l 165 262 l 151 257 m 51 170 l 55 197 l 39 199 q 28 136 25 176 l 42 136 l 46 153 l 62 153 q 62 138 64 153 l 74 136 l 79 148 q 96 142 96 145 l 85 126 l 102 121 q 113 133 103 121 l 132 123 l 119 108 l 132 96 l 149 110 q 161 91 157 106 l 136 78 l 139 62 l 166 70 l 169 50 l 142 44 l 138 29 q 210 54 182 25 l 203 68 l 184 57 l 178 81 l 199 94 l 193 107 l 173 97 l 168 114 q 185 127 178 118 l 176 140 l 158 124 l 151 139 l 163 154 l 149 165 l 134 147 q 115 155 118 155 q 121 177 123 177 l 107 180 l 102 164 q 87 170 87 168 l 87 180 l 88 188 q 77 193 87 194 q 68 177 71 193 l 66 171 l 51 170 "},"":{"ha":185,"x_min":0,"x_max":184,"o":"m 78 159 l 104 159 l 132 158 l 158 157 l 184 157 l 159 116 l 132 75 l 106 35 l 80 -6 l 64 -7 l 73 20 l 83 48 l 93 76 l 102 104 l 77 103 l 52 102 l 26 101 l 0 100 l 15 142 l 29 185 l 44 228 l 51 249 l 58 271 l 86 270 l 100 270 l 114 270 l 105 242 l 96 215 l 87 187 l 78 159 "},"":{"ha":293,"x_min":0,"x_max":293,"o":"m 162 149 l 162 123 l 162 98 l 162 72 l 162 46 q 155 18 161 29 q 139 1 149 7 q 107 -5 128 -4 q 82 1 94 -5 q 63 19 69 7 q 56 61 56 31 l 83 61 q 87 33 83 38 q 95 24 91 28 q 108 20 100 20 q 122 23 115 20 q 131 32 129 26 q 133 46 133 38 l 133 72 l 133 98 l 133 123 l 133 136 l 133 149 q 98 137 117 147 q 96 136 97 137 q 88 141 92 139 q 39 154 64 154 q 5 144 19 154 l 0 151 l 9 177 q 41 220 21 202 l 63 235 q 117 254 92 250 l 136 254 l 141 274 l 151 275 l 156 254 l 173 254 q 231 235 197 252 l 256 220 q 293 149 287 192 l 287 140 q 250 154 273 153 q 204 141 223 156 q 197 136 200 139 q 195 137 196 137 q 162 149 176 147 "},"":{"ha":261,"x_min":-1,"x_max":262,"o":"m 131 203 q 171 193 152 203 q 201 164 191 183 q 211 124 211 144 q 201 84 211 103 q 171 54 191 64 q 131 44 152 44 q 91 54 111 44 q 62 84 72 64 q 52 124 52 103 q 62 164 52 144 q 91 193 72 183 q 131 203 111 203 m 121 197 l 121 226 l 121 254 l 131 254 l 140 254 l 140 226 l 140 197 l 121 197 m 121 -7 l 121 21 l 121 49 l 140 49 l 140 21 l 140 -7 l 121 -7 m 56 115 l 28 115 l -1 115 l -1 124 l -1 133 l 28 133 l 56 133 l 56 115 m 262 115 l 235 115 l 206 115 l 206 124 l 206 133 l 235 133 l 262 133 l 262 115 m 71 170 l 52 191 l 31 210 l 45 223 l 65 203 l 85 184 l 71 170 m 218 24 l 198 44 l 178 64 l 191 77 l 211 58 l 231 37 l 218 24 m 178 184 l 198 203 l 218 223 l 224 217 l 231 210 l 211 191 l 191 170 l 184 177 l 178 184 m 31 37 l 52 58 l 71 77 l 85 64 l 65 44 l 45 24 l 38 31 l 31 37 "},"":{"ha":361,"x_min":0,"x_max":311,"o":"m 165 217 l 176 217 q 241 183 216 216 l 252 156 q 256 136 252 153 l 264 138 l 272 138 q 311 98 311 128 l 311 86 q 273 46 301 46 l 262 46 q 213 3 247 3 q 170 23 195 3 q 134 0 153 0 l 129 0 q 81 33 99 0 q 45 16 64 16 q 0 66 6 16 l 0 68 q 22 108 0 89 l 22 124 q 65 182 22 165 l 87 182 q 104 179 102 179 q 165 217 127 217 "},"":{"ha":230,"x_min":-1,"x_max":234,"o":"m 233 58 l 228 52 q 223 51 223 51 q 210 55 217 51 q 198 62 204 58 q 199 34 198 52 q 185 40 190 37 q 180 47 180 43 q 181 51 180 48 q 181 56 181 54 q 176 72 181 64 q 153 87 173 75 l 131 70 l 130 64 l 131 39 l 154 24 l 155 18 l 154 2 q 142 9 148 5 q 131 14 135 14 l 131 -12 l 104 -11 l 104 5 l 104 16 l 102 16 q 87 2 101 12 l 85 2 l 85 26 q 96 33 91 29 q 103 40 104 38 l 103 72 l 102 73 l 84 85 q 62 73 63 74 q 57 69 58 71 q 58 61 57 68 q 58 47 58 54 l 58 47 q 37 33 54 41 q 36 58 38 60 q 16 50 24 50 q 5 71 13 57 l 21 82 q 0 92 12 85 l 17 104 l 40 95 q 68 110 60 104 l 70 134 l 41 150 l 16 136 l -1 146 q 22 159 9 152 q 0 172 13 165 l 0 174 q 11 195 0 176 l 12 196 l 34 184 l 33 210 q 51 199 40 205 q 53 173 51 189 q 83 157 74 159 l 101 168 q 102 196 102 169 l 83 212 l 83 236 l 100 222 q 101 239 102 227 q 101 254 100 251 q 126 254 113 255 l 129 252 l 129 222 l 130 222 l 150 235 l 150 214 q 130 199 140 207 q 129 179 129 179 l 130 169 l 131 168 l 149 157 q 173 172 159 161 q 176 181 176 172 q 175 196 175 193 l 175 197 l 197 210 l 195 184 l 196 184 l 218 195 l 231 172 l 211 158 q 230 148 216 157 l 215 136 l 193 146 l 166 133 l 165 110 q 191 94 170 106 l 216 105 l 233 96 l 231 94 q 211 83 220 87 l 234 70 l 233 58 "},"":{"ha":263,"x_min":0,"x_max":265,"o":"m 139 273 l 176 269 q 265 182 237 256 l 264 182 q 195 222 233 222 l 190 222 q 120 185 142 220 l 112 159 q 110 142 110 149 l 110 141 q 127 84 107 102 q 172 62 146 65 q 190 60 181 60 l 197 60 q 262 85 219 60 q 264 83 262 83 q 199 13 244 39 q 150 0 165 0 l 126 0 q 51 27 77 6 q 11 81 24 48 q 0 137 0 106 q 28 221 1 189 q 86 266 55 253 q 139 273 109 273 "},"":{"ha":326,"x_min":0,"x_max":157,"o":"m 97 330 q 140 296 132 327 q 138 256 143 273 q 117 231 132 239 l 106 224 l 106 201 q 136 189 117 201 q 157 145 156 176 q 106 87 155 96 l 106 85 q 106 50 106 78 q 91 11 106 21 q 53 0 75 0 l 50 0 q 12 21 21 0 q 9 42 8 31 q 33 66 14 66 l 39 66 q 62 45 60 66 l 62 39 q 55 27 62 35 l 56 27 q 79 49 77 25 l 80 58 q 79 86 80 67 q 24 104 48 84 q 0 155 0 123 q 12 205 1 190 q 37 230 23 220 q 75 250 50 240 q 76 291 76 273 l 76 298 q 97 330 76 328 m 107 300 l 107 262 q 122 281 119 267 q 117 301 125 294 q 107 300 109 309 m 35 149 q 71 118 41 122 l 75 118 l 77 119 l 77 123 q 77 175 77 131 q 66 165 67 172 q 68 144 66 159 q 62 142 66 140 q 49 163 49 147 q 78 197 51 186 l 78 216 q 41 188 52 206 q 35 149 31 170 m 106 177 l 106 176 q 106 119 106 142 q 132 138 127 125 q 129 163 136 151 q 106 177 123 176 "},"":{"ha":195,"x_min":0,"x_max":196,"o":"m 117 43 q 101 12 113 20 q 77 -2 90 3 q 52 -7 65 -7 q 26 -2 38 -7 q 7 13 14 3 q 0 35 0 23 q 7 56 0 45 q 26 71 14 66 q 52 76 38 76 q 77 71 65 76 q 83 68 81 69 l 83 115 l 83 162 l 83 209 l 83 256 l 103 256 q 171 231 147 256 q 196 162 195 206 l 174 162 q 157 198 170 191 q 117 206 144 206 l 117 165 l 117 125 l 117 83 l 117 43 "},"":{"ha":228,"x_min":0,"x_max":229,"o":"m 102 166 l 102 122 l 102 78 l 102 33 l 102 -11 q 92 -32 102 -21 q 70 -48 81 -43 q 47 -53 59 -53 q 23 -48 34 -53 q 6 -34 12 -43 q 0 -14 0 -24 q 6 5 0 -4 q 23 19 12 14 q 47 24 34 24 q 70 19 59 24 q 76 16 73 18 l 76 58 l 76 101 l 76 144 l 76 186 l 114 201 l 153 214 l 191 229 l 229 242 l 229 191 l 229 140 l 229 88 l 229 62 l 229 37 q 223 17 229 26 q 206 3 217 8 q 182 -2 195 -2 q 158 3 170 -2 q 141 17 147 8 q 136 37 136 26 q 141 56 136 47 q 158 70 147 65 q 182 75 170 75 q 197 68 195 75 q 203 65 201 67 l 203 100 l 203 135 l 203 170 l 203 205 l 178 195 l 153 186 l 127 176 l 102 166 "},"":{"ha":252,"x_min":0,"x_max":254,"o":"m 76 237 l 98 237 l 121 237 l 143 237 l 165 237 l 187 237 l 210 237 l 232 237 l 254 237 l 254 187 l 254 137 l 254 87 l 254 37 q 248 17 254 26 q 231 3 242 8 q 208 -2 220 -2 q 184 3 195 -2 q 167 17 173 8 q 161 37 161 26 q 167 56 161 47 q 183 70 173 65 q 205 74 193 74 q 222 70 214 73 q 228 66 224 68 l 228 90 l 228 112 l 228 135 l 228 157 l 197 157 l 166 157 l 136 157 l 104 157 l 104 127 l 104 97 l 104 67 l 104 37 q 93 17 104 26 q 70 3 81 8 q 47 -2 59 -2 q 23 3 34 -2 q 6 17 12 8 q 0 37 0 26 q 6 56 0 47 q 23 70 12 65 q 47 75 34 75 q 70 70 59 75 q 76 66 73 68 l 76 109 l 76 152 l 76 195 l 76 237 m 104 209 l 104 183 l 136 183 l 166 183 l 197 183 l 212 183 l 228 183 l 228 209 l 197 209 l 166 209 l 136 209 l 104 209 "},"":{"ha":119,"x_min":1,"x_max":119,"o":"m 87 254 l 103 254 l 119 253 l 119 198 l 119 144 l 119 89 l 119 52 l 119 28 q 103 10 114 18 q 80 -3 93 3 q 54 -8 67 -8 q 26 -3 39 -8 q 7 13 14 3 q 1 34 1 22 q 7 55 1 45 q 26 70 14 65 q 54 75 39 75 q 80 71 67 75 q 87 66 83 68 l 87 113 l 87 160 l 87 207 l 87 254 "},"":{"ha":92,"x_min":0,"x_max":104,"o":"m 69 269 q 101 248 94 267 l 104 237 l 104 221 q 73 193 96 201 l 54 190 l 37 187 l 37 146 q 37 79 36 105 l 37 52 l 60 66 q 81 84 77 80 q 86 100 86 96 l 89 100 q 91 92 91 94 l 91 78 q 68 40 91 57 l 46 23 q 36 5 36 14 l 37 1 l 35 0 l 19 0 l 0 1 l 1 52 q 1 127 1 102 l 1 151 l 1 193 q 0 223 1 204 q 21 258 1 244 q 69 269 46 273 "},"":{"ha":305,"x_min":1,"x_max":305,"o":"m 77 254 l 229 254 q 261 199 231 253 q 305 121 305 124 q 254 32 305 119 q 229 -11 232 -9 l 77 -11 q 10 104 70 0 q 1 122 1 119 q 77 254 75 252 m 92 211 q 134 136 134 138 l 102 24 l 199 24 l 199 24 l 172 136 q 214 209 214 208 l 209 218 l 208 218 l 153 125 l 153 125 l 100 218 l 97 218 l 92 211 m 119 220 l 119 220 l 153 201 l 186 220 l 119 220 m 43 128 l 43 128 l 44 128 l 44 119 l 82 50 l 82 194 l 82 195 l 43 128 m 224 193 l 224 47 l 262 121 l 262 127 l 262 128 l 224 193 "},"":{"ha":213,"x_min":-1,"x_max":214,"o":"m 214 256 l 214 207 q 213 201 214 202 q 208 198 212 199 q 204 180 204 196 q 205 163 204 174 q 207 135 205 152 q 209 92 208 117 q 211 45 210 66 q 196 13 211 25 q 157 -5 181 0 q 106 -11 133 -11 q 66 -8 85 -11 q 34 -1 47 -5 q 8 15 16 5 q -1 35 -1 24 q 6 54 -1 45 q 21 68 12 63 q 40 73 29 73 q 52 72 43 73 q 66 71 60 71 q 90 73 77 71 q 104 121 104 74 q 104 144 104 133 q 102 175 103 155 q 100 201 100 195 q 97 202 100 201 q 94 203 95 203 q 92 207 92 204 l 92 256 l 214 256 m 195 240 l 113 240 l 113 216 l 195 216 l 195 240 m 118 190 l 118 164 l 144 164 l 144 190 l 118 190 m 165 189 l 165 165 l 191 165 l 191 189 l 165 189 m 145 149 l 145 121 l 176 121 l 176 149 l 145 149 m 124 102 l 124 75 l 149 75 l 149 102 l 124 102 m 130 47 l 130 6 l 146 6 l 146 47 l 130 47 m 45 52 l 26 52 l 26 28 l 45 28 l 45 52 m 58 26 l 58 7 l 92 7 l 92 26 l 58 26 m 168 66 l 168 39 l 192 39 l 192 66 l 168 66 m 79 58 l 79 39 l 113 39 l 113 58 l 79 58 "},"":{"ha":240,"x_min":1,"x_max":241,"o":"m 117 109 q 130 112 124 109 q 140 122 136 116 q 144 136 144 128 q 140 149 144 143 q 130 159 136 155 q 117 162 124 162 q 103 159 109 162 q 94 149 97 155 q 90 136 90 143 q 94 122 90 129 q 103 112 97 116 q 117 109 109 109 m 131 52 q 131 46 131 49 q 131 42 131 44 q 132 39 132 41 q 139 44 144 40 q 131 52 133 49 m 159 22 q 152 19 155 20 q 145 17 148 18 q 140 16 142 16 q 149 -2 140 7 q 137 -6 142 -4 q 130 -10 132 -8 q 125 1 127 -6 q 121 15 122 9 q 117 4 118 7 q 108 -10 115 1 q 88 -6 102 -9 q 95 5 91 -2 q 99 16 98 12 q 77 22 90 18 q 69 20 72 20 q 66 21 68 20 q 68 28 66 23 q 33 54 48 37 q 9 91 18 70 q 1 136 1 112 q 17 195 1 168 q 60 238 33 222 q 120 254 87 254 q 180 238 152 254 q 224 195 208 222 q 241 136 241 168 q 233 93 241 113 q 210 56 224 72 q 177 28 195 39 q 182 20 180 24 q 175 18 180 18 q 159 22 170 18 m 109 37 q 110 41 109 38 q 111 46 111 45 q 112 52 111 48 q 98 39 105 45 q 109 37 104 37 m 168 58 q 190 79 180 67 q 206 106 200 91 q 212 136 212 121 q 199 182 212 161 q 165 215 186 203 q 119 227 144 227 q 75 215 96 227 q 42 182 54 203 q 30 136 30 161 q 35 105 30 120 q 50 79 40 91 q 73 58 60 66 q 66 77 70 70 q 66 79 66 78 q 84 81 66 80 q 61 110 66 98 q 56 141 57 121 q 68 173 59 161 q 92 192 78 185 q 123 197 105 198 q 151 189 140 196 q 170 169 163 181 q 178 138 178 157 q 172 106 176 118 q 157 85 167 94 q 168 66 168 72 l 168 58 "},"":{"ha":364,"x_min":0,"x_max":364,"o":"m 297 276 l 288 254 q 294 245 289 250 q 309 231 298 240 q 324 214 319 221 q 330 202 330 207 q 328 196 330 198 q 321 193 326 193 q 309 197 318 193 q 295 202 300 200 q 283 203 290 203 q 286 164 286 187 q 277 108 286 127 q 304 54 291 75 q 344 89 326 66 l 364 72 q 316 27 343 45 q 259 1 290 9 q 198 -7 229 -7 q 144 -1 171 -7 q 91 16 117 5 q 42 42 65 27 q 0 77 20 58 l 16 101 q 71 62 45 76 q 77 77 76 72 q 80 112 79 83 q 88 149 81 140 q 96 162 95 158 q 83 180 90 180 q 74 176 79 180 q 61 163 68 171 q 43 155 54 155 q 16 174 31 155 q 41 181 31 174 q 59 199 52 189 q 72 218 66 209 q 85 229 79 228 q 95 225 92 229 q 107 204 99 221 q 116 185 115 188 q 137 172 121 176 q 175 167 154 167 q 212 172 196 167 q 227 184 227 176 q 227 189 227 186 q 244 225 231 195 q 266 256 257 256 q 280 264 274 256 q 297 276 286 272 m 237 89 q 203 82 225 81 q 163 84 182 82 q 131 94 144 85 l 102 44 q 122 35 107 40 q 157 26 136 29 q 199 22 178 22 q 277 42 247 22 l 237 89 "},"":{"ha":267,"x_min":1,"x_max":267,"o":"m 208 290 q 212 290 209 290 q 216 290 214 290 q 245 283 234 290 q 262 266 257 277 q 267 239 267 254 q 251 175 267 212 q 243 173 248 173 q 229 175 237 173 q 218 181 222 178 q 220 189 218 181 q 224 205 222 197 q 226 220 226 213 q 214 237 226 237 q 206 236 211 237 q 195 225 200 234 q 184 203 189 216 q 174 172 179 189 q 164 142 168 154 q 195 149 180 149 q 236 130 221 149 l 224 87 q 184 98 198 98 q 163 92 172 98 l 191 5 q 178 -6 187 -3 q 160 -10 170 -10 q 153 -9 157 -10 l 131 45 l 114 -5 q 94 -2 103 -5 q 79 9 85 0 l 104 95 q 91 95 98 95 q 82 96 84 96 q 76 95 78 96 q 72 92 74 94 q 62 79 71 90 l 51 134 q 69 149 56 149 q 87 145 75 149 q 102 142 98 142 q 83 200 94 174 q 62 229 72 226 q 56 230 59 230 q 45 214 45 230 q 48 193 45 205 q 53 176 51 182 q 44 165 53 169 q 26 161 35 161 q 22 162 23 161 q 1 224 1 191 q 12 262 1 246 q 43 283 22 278 q 54 284 51 284 q 83 274 71 284 q 104 250 96 264 q 121 215 113 235 q 133 185 129 195 q 144 218 136 197 q 159 255 151 240 q 179 279 167 269 q 208 290 191 289 m 220 273 l 220 253 l 227 250 l 243 262 q 220 273 236 273 m 22 249 l 43 238 q 53 242 45 241 l 50 267 q 47 267 49 267 q 37 264 43 267 q 26 258 31 262 q 22 249 22 254 m 182 257 q 176 251 179 255 q 171 242 173 246 q 165 231 169 238 l 179 221 q 189 239 184 233 l 182 257 m 93 245 l 80 230 q 88 220 86 224 q 96 205 90 216 l 109 214 q 104 228 108 222 q 93 245 101 234 m 239 219 l 235 199 q 241 197 237 197 q 243 197 241 197 q 245 197 244 197 q 250 207 248 199 q 252 220 252 214 l 239 219 m 15 212 q 15 210 15 211 q 18 195 15 203 q 25 181 21 186 q 37 187 37 181 q 35 194 36 190 q 34 202 34 198 q 33 210 33 206 l 15 212 m 148 182 l 138 153 q 146 156 141 156 q 153 153 151 156 l 159 172 l 148 182 m 119 184 l 109 174 l 113 159 l 115 159 l 121 181 l 119 184 m 145 88 l 136 57 l 140 57 q 160 63 157 57 l 151 89 q 150 90 151 90 q 145 88 146 90 m 115 95 l 105 63 q 111 59 106 62 q 117 55 115 56 q 119 56 119 55 l 129 87 q 125 86 128 85 q 119 89 122 86 q 115 95 116 92 m 100 33 l 95 16 q 105 10 98 10 q 107 10 106 10 l 113 29 q 100 33 104 29 m 170 31 q 156 25 165 25 l 154 25 l 162 7 q 170 9 167 8 q 176 14 173 10 l 170 31 "},"":{"ha":205,"x_min":-1,"x_max":206,"o":"m 92 40 l 92 58 l 119 58 l 119 40 q 132 30 124 38 q 139 10 139 21 q 130 -10 139 -1 q 104 -20 121 -19 q 78 -11 87 -19 q 68 10 68 -2 q 77 30 68 21 q 92 40 85 39 m 116 287 l 116 256 q 146 231 134 255 q 164 174 158 206 q 176 111 170 142 q 191 81 182 81 l 206 81 l 206 43 l -1 43 l -1 81 l 14 81 q 30 112 24 81 q 41 174 36 142 q 59 230 47 206 q 89 256 71 254 l 89 287 l 116 287 "},"":{"ha":239,"x_min":-1,"x_max":241,"o":"m 127 248 q 136 230 132 240 q 143 214 140 220 q 154 201 146 209 q 160 197 155 199 q 168 193 165 195 q 172 188 171 191 q 172 187 172 188 q 172 186 172 186 q 169 179 172 182 q 161 176 166 177 q 151 174 157 175 q 158 160 153 166 q 175 146 163 155 q 191 133 186 137 q 198 123 195 129 q 190 116 198 116 q 184 116 188 116 q 179 117 180 117 q 176 116 176 117 q 190 100 178 108 q 212 84 201 92 q 225 68 223 76 q 225 66 225 67 q 218 60 225 60 q 214 60 217 60 q 208 60 210 60 q 204 60 206 60 q 214 44 205 52 q 231 30 222 37 q 241 15 240 22 q 231 8 240 9 q 204 6 221 6 q 192 6 200 6 q 181 7 184 7 q 164 5 166 7 l 164 -17 q 161 -18 163 -18 q 157 -16 160 -18 q 151 -14 154 -14 q 134 -12 142 -14 q 127 -7 132 -7 q 120 -9 124 -7 q 112 -12 117 -10 q 105 -14 106 -14 q 93 -17 97 -17 q 90 -16 92 -17 l 90 7 q 65 5 83 6 q 33 2 47 3 q 15 1 19 1 q 3 3 7 1 q -1 10 -1 5 q 12 26 -1 18 q 22 31 18 28 q 27 34 26 33 q 31 38 29 36 q 35 44 32 40 q 22 47 26 44 q 18 53 18 50 q 19 55 18 54 q 36 67 31 63 q 45 74 42 71 q 50 80 48 77 q 52 91 51 84 q 45 92 50 92 q 39 93 40 92 q 33 101 33 97 q 38 110 33 105 q 53 123 43 115 q 67 134 63 130 q 73 142 72 138 q 67 142 70 142 q 61 142 64 142 q 56 142 58 142 q 52 145 52 142 q 54 152 52 147 q 66 164 56 156 q 81 176 76 172 q 85 187 85 181 q 85 191 85 188 q 70 197 70 191 q 72 203 70 200 q 84 219 77 213 q 97 231 92 226 q 108 248 102 236 q 116 254 111 254 q 127 248 121 254 m 101 201 q 105 214 105 210 q 102 217 105 217 q 94 212 99 217 q 87 202 88 207 q 94 199 87 199 q 101 201 100 199 m 138 194 q 127 196 133 196 q 121 192 122 196 q 124 186 120 188 q 130 186 127 185 q 136 185 131 186 q 145 184 142 184 q 151 186 149 184 q 147 191 153 189 q 142 193 145 192 q 138 194 139 194 m 76 152 q 79 151 76 151 q 82 151 79 151 q 86 151 84 151 q 105 147 96 151 q 108 146 106 146 q 111 149 110 146 q 112 154 112 151 q 111 159 112 157 q 106 162 109 161 q 89 161 95 162 q 79 158 82 160 q 76 152 77 156 m 168 133 q 163 138 166 136 q 154 145 159 141 q 146 151 149 149 q 144 152 146 152 q 143 151 144 152 q 142 149 142 151 q 146 140 142 145 q 156 133 151 136 q 165 130 162 130 q 169 130 169 130 q 168 133 169 132 m 52 103 q 55 102 54 102 q 62 103 56 102 q 71 104 67 104 q 81 101 77 104 q 87 100 83 100 q 96 101 91 100 q 102 104 100 102 q 104 105 104 104 q 102 107 104 106 q 95 110 100 110 q 90 110 93 110 q 86 109 87 109 q 80 111 82 109 q 77 116 77 112 q 78 118 77 117 q 78 120 78 119 q 77 121 78 121 q 76 121 77 121 q 73 117 75 119 q 71 113 72 114 q 68 111 70 111 q 61 110 66 110 q 53 109 56 109 q 50 106 50 108 q 52 103 50 105 m 195 73 q 195 74 195 73 q 195 74 195 74 q 192 80 195 77 q 181 87 189 83 q 170 94 174 91 q 161 102 165 98 q 155 109 157 109 q 153 107 154 109 q 151 102 153 106 q 148 96 149 98 q 147 94 147 95 q 151 89 147 91 q 160 87 154 87 q 164 87 163 87 q 173 85 170 87 q 181 77 176 83 q 191 71 187 71 q 195 73 193 71 m 62 68 q 56 65 60 67 q 51 61 52 63 q 49 58 49 60 q 51 54 49 56 q 60 52 54 52 q 78 54 66 52 q 94 56 90 56 q 98 58 98 56 q 97 60 98 59 q 87 61 93 61 q 82 61 85 61 q 77 60 78 60 q 73 62 75 60 q 71 65 72 63 q 68 68 69 67 q 65 70 67 70 q 62 68 64 70 m 214 22 q 210 24 212 24 q 206 24 209 24 q 199 24 203 23 q 191 25 197 24 q 186 26 189 26 q 178 25 180 27 q 174 22 175 24 q 178 19 174 20 q 207 17 196 18 q 213 17 211 17 q 216 18 216 18 q 214 22 216 20 m 31 12 q 48 13 36 12 q 67 14 60 14 q 74 14 73 14 q 74 16 74 15 q 69 17 74 17 q 63 17 68 17 q 57 16 59 16 q 53 17 54 16 q 33 20 39 20 q 20 16 26 20 q 18 14 18 15 q 21 12 18 13 q 26 12 23 12 q 31 12 27 12 m 121 39 q 130 41 127 41 q 133 40 131 41 q 139 39 136 39 q 146 39 142 39 q 157 41 152 41 q 167 42 161 41 q 175 42 173 42 q 176 43 176 42 q 176 44 176 43 l 168 50 q 165 51 166 51 q 160 50 163 51 q 154 48 158 50 q 147 45 149 46 q 142 45 144 45 q 134 50 138 50 q 126 46 131 50 q 118 42 121 43 q 112 40 115 42 q 109 37 109 38 q 111 36 109 36 q 121 39 114 36 "},"":{"ha":304,"x_min":-1,"x_max":304,"o":"m 181 199 l 304 199 l 304 -12 l 0 -12 l -1 -13 l -1 199 l 126 199 q 119 210 126 205 q 99 223 113 216 q 81 234 86 230 q 75 241 75 237 q 79 246 75 244 q 106 253 94 253 q 157 205 140 253 q 168 225 158 214 q 190 245 178 236 q 210 254 203 254 q 241 238 241 247 q 234 229 241 233 q 213 219 227 225 q 191 208 199 212 q 181 199 183 203 m 42 180 q 30 175 35 180 q 24 164 24 170 q 30 153 24 158 q 42 148 35 148 q 55 153 50 148 q 60 164 60 157 q 55 175 60 171 q 42 180 50 180 m 79 119 q 53 109 64 119 q 41 86 41 100 q 53 62 41 72 q 79 52 64 52 q 106 62 95 52 q 117 86 117 72 q 112 102 117 95 q 98 114 107 110 q 79 119 90 119 m 244 178 q 231 173 237 177 q 222 162 225 169 q 218 147 218 155 q 226 126 218 135 q 244 117 233 117 q 263 126 255 117 q 271 147 271 135 q 263 169 271 159 q 244 178 255 178 m 134 168 q 118 160 125 168 q 111 143 111 153 q 118 125 111 133 q 134 118 125 118 q 151 125 144 118 q 157 143 157 133 q 154 155 157 149 q 146 164 151 161 q 134 168 140 168 m 187 106 q 170 100 177 106 q 162 85 162 94 q 170 70 162 76 q 187 63 177 63 q 205 70 197 63 q 212 85 212 76 q 205 100 212 94 q 187 106 197 106 m 41 33 q 28 29 34 33 q 23 20 23 25 q 28 11 23 14 q 41 7 34 7 q 55 11 49 7 q 60 20 60 14 q 55 29 60 25 q 41 33 50 33 m 140 43 q 128 38 133 43 q 123 27 123 34 q 128 16 123 21 q 140 12 133 12 q 153 16 148 12 q 158 27 158 20 q 153 38 158 34 q 140 43 148 43 m 241 52 q 224 45 232 52 q 217 28 217 38 q 224 13 217 19 q 241 6 232 6 q 259 13 252 6 q 267 28 267 19 q 259 45 267 38 q 241 52 252 52 m 304 111 q 281 102 290 111 q 272 83 272 94 q 281 62 272 71 q 304 54 290 54 l 304 111 "},"":{"ha":157,"x_min":-2,"x_max":156,"o":"m 1 94 l 60 94 l 60 -9 l 1 -9 l 1 94 m 75 -9 l 75 94 l 156 94 l 156 -9 l 75 -9 m 75 146 q 38 152 55 145 q 12 169 21 159 q 1 188 2 178 q 7 205 0 197 q 27 210 15 211 q 50 201 39 209 q 70 179 61 193 q 75 146 79 164 m 71 147 q 78 170 73 159 q 92 188 84 180 q 108 201 99 196 q 125 207 117 205 q 140 207 134 209 q 150 198 147 205 q 151 181 154 190 q 139 165 149 172 q 112 153 129 157 q 71 147 95 148 m 60 111 l 1 111 l 1 151 l 60 151 l 60 111 m 156 111 l 75 111 l 75 151 l 156 151 l 156 111 m 134 231 q 115 216 125 224 q 96 197 105 208 q 81 171 87 186 q 75 132 75 157 q 70 170 70 156 q 74 194 71 184 q 83 213 77 205 q 95 227 89 221 q 108 238 102 233 q 118 249 115 243 l 115 231 l 134 231 m 15 239 l 6 255 q 25 244 14 250 q 47 228 37 239 q 66 199 58 217 q 77 154 74 182 q 61 185 71 172 q 40 208 51 199 q 19 224 30 218 q -2 234 8 231 l 15 239 m 124 186 q 116 188 121 189 q 104 184 111 187 q 93 174 98 180 q 85 160 87 168 q 99 161 90 159 q 114 167 107 163 q 125 176 121 171 q 124 186 128 180 m 29 186 q 29 179 27 183 q 36 170 31 174 q 46 163 40 166 q 60 160 53 160 q 58 167 60 163 q 54 175 56 171 q 47 183 51 179 q 41 188 44 186 q 34 190 37 190 q 29 186 31 190 m 156 83 l 137 83 l 137 142 l 156 142 l 156 83 m 22 83 l 1 83 l 1 142 l 22 142 l 22 83 m 117 151 l 117 130 l 36 130 l 36 151 l 117 151 m 109 12 l 109 -9 l 50 -9 l 50 12 l 109 12 "},"":{"ha":264,"x_min":-2,"x_max":267,"o":"m 18 188 q 53 227 31 212 q 98 249 74 243 q 149 253 123 256 q 198 236 175 250 q 237 201 222 222 q 260 155 253 180 q 263 105 267 131 q 246 55 260 79 q 212 16 233 31 q 166 -6 191 1 q 115 -9 141 -12 q 66 7 90 -6 q 26 42 42 21 q 4 88 11 64 q 1 138 -2 113 q 18 188 4 164 m 109 87 q 119 130 117 120 q 121 147 121 140 l 60 52 q 74 40 65 45 q 90 30 82 34 q 129 20 111 20 q 163 26 146 20 q 194 42 180 31 q 218 68 209 52 q 224 79 221 74 q 228 88 227 83 l 136 142 q 140 127 137 134 q 161 96 142 120 q 155 93 160 96 q 137 87 150 90 q 117 85 124 84 q 109 87 110 86 m 233 116 q 232 139 234 126 q 224 164 230 153 q 210 186 218 176 q 191 204 201 197 q 161 219 177 215 l 137 178 l 175 186 l 158 157 l 233 116 m 43 168 q 35 145 38 157 q 32 122 32 134 q 34 100 32 110 q 42 76 36 90 l 90 156 q 78 147 84 152 q 62 125 71 142 q 62 134 62 125 q 60 147 62 142 q 52 155 57 151 q 45 161 47 158 l 47 165 q 69 165 63 163 q 86 169 75 167 l 56 187 q 43 168 47 178 m 133 223 q 102 219 116 222 q 74 204 88 215 l 85 198 l 100 215 l 110 186 q 111 187 111 187 l 133 223 "},"":{"ha":260,"x_min":0,"x_max":260,"o":"m 98 181 q 95 186 96 183 q 94 189 94 187 q 94 191 94 190 q 96 194 95 193 q 98 197 96 195 q 100 198 98 197 q 104 198 102 199 q 107 197 106 197 q 113 194 109 197 q 121 189 116 191 q 130 179 127 182 l 131 178 l 130 178 q 98 181 109 170 m 154 177 q 127 179 142 170 l 125 179 l 127 180 q 128 181 127 180 q 132 184 130 182 q 142 189 138 187 q 148 191 146 191 q 150 191 149 191 q 154 191 153 192 q 156 189 155 191 q 158 184 157 187 q 157 182 158 184 q 157 180 157 182 q 154 177 156 178 m 201 156 l 104 156 l 104 119 l 201 119 l 201 156 m 189 98 l 104 98 l 104 43 l 189 43 l 189 98 m 89 156 l 58 156 l 58 120 l 89 120 l 89 156 m 88 98 l 71 98 l 71 44 l 88 44 l 88 98 m 96 205 q 86 197 90 203 q 84 191 84 194 q 88 179 84 184 l 88 178 q 89 178 88 179 q 92 176 90 177 q 100 171 95 173 q 127 177 113 167 l 128 177 l 128 177 q 171 178 154 163 q 174 191 174 184 q 172 197 174 195 q 161 205 168 203 l 161 205 q 159 206 160 206 q 149 201 154 206 q 135 184 142 196 q 130 163 132 179 q 119 191 124 183 q 110 201 114 197 q 99 206 104 206 q 96 205 98 206 m 38 214 q 130 252 76 252 q 222 214 184 252 q 260 122 260 176 q 222 30 260 68 q 130 -8 184 -8 q 38 30 76 -8 q 0 122 0 68 q 38 214 0 176 m 87 170 l 87 169 l 87 170 "},"":{"ha":263,"x_min":1,"x_max":263,"o":"m 190 48 l 134 184 l 153 173 l 141 194 l 160 207 l 136 207 l 130 229 l 121 208 l 97 208 l 117 195 l 106 175 l 125 184 l 79 48 l 123 48 l 125 33 l 146 33 l 146 48 l 190 48 m 39 214 q 132 253 77 253 q 224 214 186 253 q 263 122 263 176 q 224 28 263 67 q 132 -9 186 -9 q 39 28 77 -9 q 1 122 1 67 q 39 214 1 176 "},"":{"ha":264,"x_min":0,"x_max":264,"o":"m 0 122 q 11 173 0 149 q 39 216 21 197 q 81 244 57 234 q 132 254 105 254 q 184 244 160 254 q 226 216 208 234 q 254 173 244 197 q 264 122 264 149 q 254 70 264 94 q 226 28 244 46 q 184 0 208 10 q 132 -10 160 -10 q 81 0 105 -10 q 39 28 57 10 q 11 70 21 46 q 0 122 0 94 m 35 123 q 39 96 35 106 q 47 78 42 85 q 80 97 67 86 q 100 122 92 109 q 118 157 109 136 q 133 202 127 178 q 143 171 136 189 q 160 133 150 153 q 181 99 170 113 q 218 75 193 85 q 227 94 223 83 q 231 123 231 106 q 223 161 231 143 q 202 192 216 178 q 172 213 189 205 q 134 221 154 220 q 94 213 112 221 q 63 192 77 205 q 42 161 50 178 q 35 123 35 143 m 148 28 q 181 40 165 31 q 203 58 196 48 q 182 52 198 56 q 148 45 166 47 l 148 28 m 64 57 q 86 39 71 47 q 119 28 102 31 l 119 45 q 104 47 112 46 q 89 50 96 48 q 76 52 81 51 q 64 57 72 54 m 134 187 l 113 173 l 121 197 l 101 211 l 125 211 l 134 235 l 141 211 l 166 211 l 146 197 l 153 173 l 134 187 "},"":{"ha":251,"x_min":-1,"x_max":252,"o":"m 252 195 q 227 157 252 193 l 212 165 q 193 134 199 147 l 154 134 l 146 129 l 154 123 q 191 122 180 124 l 208 95 l 223 104 l 248 64 l 245 60 l 197 60 l 195 74 l 194 75 l 168 75 q 146 107 155 89 l 137 113 l 137 113 l 136 107 q 143 88 136 102 q 155 69 149 79 l 139 43 q 154 33 149 36 l 137 -2 l 136 -2 l 132 -11 l 130 -11 q 103 31 121 3 l 119 41 q 111 55 118 42 q 102 68 106 64 q 115 90 115 89 q 121 113 121 102 l 119 113 q 102 96 110 109 q 91 75 97 85 l 56 75 q 56 62 55 74 l 6 62 l 9 68 q 20 83 12 69 q 32 102 31 100 l 45 93 q 55 107 50 97 q 64 123 62 121 l 102 123 l 111 128 l 100 135 q 62 136 87 135 l 42 168 q 24 160 25 160 l -1 203 l 3 204 q 52 202 19 205 q 51 183 51 197 l 52 182 q 66 182 58 182 q 81 182 77 182 l 89 182 q 102 159 101 160 q 121 142 111 147 q 122 149 122 149 q 113 168 122 154 q 102 187 102 186 l 119 218 l 104 229 l 127 272 q 141 252 132 267 q 153 229 147 240 q 138 218 148 225 l 155 185 q 144 167 150 176 q 136 149 136 154 l 137 143 l 138 142 q 154 160 146 147 q 168 180 161 170 l 203 181 l 203 184 q 203 199 203 189 l 210 199 q 233 198 216 199 q 252 195 250 196 "},"":{"ha":286,"x_min":0,"x_max":285,"o":"m 174 255 q 206 241 189 255 q 233 212 222 227 q 243 173 244 198 q 245 147 243 147 q 264 151 256 151 q 285 134 285 151 q 276 108 285 122 q 267 97 273 102 q 257 92 261 92 q 254 92 255 92 q 237 97 243 97 q 231 102 235 98 q 227 113 227 107 q 222 126 227 119 q 216 136 216 134 q 221 142 216 140 q 222 157 221 145 q 215 176 224 170 q 207 162 207 182 q 207 157 207 159 q 207 153 207 155 q 208 151 208 151 q 203 137 208 142 q 188 121 199 131 q 192 113 189 117 q 201 105 195 110 q 210 96 208 100 q 213 90 213 93 q 211 85 213 87 q 202 79 207 81 q 189 78 197 78 q 179 76 182 77 q 176 70 176 75 q 176 66 176 68 q 180 43 180 47 q 177 36 180 37 q 161 30 174 34 q 135 20 148 26 q 131 15 132 18 q 126 2 129 11 q 121 -11 123 -7 q 116 -15 119 -15 q 113 -14 115 -15 q 71 -3 89 -3 q 56 -5 64 -3 q 47 -7 49 -7 q 38 -2 43 -7 q 30 4 35 1 q 17 9 25 6 q 4 14 8 12 q 0 20 0 16 q 1 22 0 20 q 3 28 3 24 q 1 36 3 30 q 0 47 0 42 q 5 54 1 52 q 14 57 9 56 q 19 64 18 59 q 28 73 19 68 q 38 79 37 77 q 39 79 39 79 q 34 85 39 81 q 29 90 29 90 q 30 92 29 92 q 40 97 37 95 q 43 98 43 98 q 41 100 43 99 q 33 104 39 101 q 28 109 28 106 q 34 119 28 114 q 23 136 23 129 q 58 153 23 149 q 63 158 61 153 q 68 169 65 163 q 73 176 71 175 q 70 189 70 183 q 88 207 70 203 q 108 215 99 209 q 131 233 117 221 q 154 250 144 244 q 174 255 163 255 m 88 194 q 85 193 85 194 q 88 188 83 191 q 97 183 94 185 q 107 177 100 182 q 121 169 115 172 q 138 160 128 165 q 150 155 144 157 q 157 152 155 153 q 166 147 159 151 q 176 146 170 146 q 184 148 183 146 q 183 150 184 149 q 173 157 179 153 q 161 162 166 160 q 159 162 159 162 q 157 163 158 163 q 156 163 157 163 q 145 168 151 165 q 129 177 140 171 q 112 186 119 183 q 99 192 105 190 q 88 194 93 194 m 88 170 q 83 164 85 168 q 79 155 81 160 q 75 147 77 151 q 71 143 73 143 q 50 140 60 143 q 40 131 40 138 q 45 121 40 127 q 55 117 49 117 q 65 119 58 117 q 72 121 71 121 q 77 122 74 122 q 91 120 83 122 q 102 119 99 119 q 111 131 110 119 q 112 138 111 136 q 114 144 112 140 q 117 152 115 147 q 102 162 111 157 q 88 170 94 168 m 71 144 q 75 156 78 151 q 88 147 85 151 q 91 139 91 143 q 91 139 91 139 q 92 139 92 139 q 86 142 90 140 q 71 144 82 144 m 56 76 q 55 75 55 75 q 57 73 55 75 q 59 71 58 72 q 60 68 60 70 q 53 63 59 66 q 47 59 47 60 q 46 54 47 56 q 43 52 45 52 q 35 47 35 50 q 35 44 35 47 q 36 39 36 41 q 35 34 36 36 q 38 32 35 33 q 45 29 40 31 q 55 24 51 26 q 60 19 58 22 q 62 18 61 18 q 68 20 63 18 q 79 21 74 21 q 104 14 90 21 q 105 16 104 14 q 108 23 106 18 q 111 31 110 28 q 114 35 112 34 q 126 41 121 39 q 135 44 132 43 q 139 45 138 45 q 140 47 140 45 q 139 52 140 47 q 137 62 138 56 q 141 69 137 68 q 149 71 144 71 q 154 73 153 71 q 154 75 154 74 q 152 80 154 77 q 148 88 151 84 q 143 96 144 92 q 134 103 140 99 q 135 121 128 107 q 132 134 142 134 q 130 129 131 132 q 118 110 130 126 q 87 100 96 100 q 80 101 85 100 q 73 102 75 102 q 71 101 72 102 q 66 97 69 101 q 57 92 62 94 q 51 90 51 90 q 52 88 51 89 q 59 84 54 85 q 68 83 64 83 q 72 82 72 83 q 56 76 72 82 m 247 135 q 239 131 239 133 q 240 128 239 130 q 241 123 241 125 q 243 114 241 115 q 249 113 245 114 q 253 112 252 112 q 261 119 257 112 q 264 129 264 125 q 255 136 264 136 q 247 135 250 136 "},"":{"ha":230,"x_min":-1,"x_max":234,"o":"m 233 58 l 228 52 q 223 51 223 51 q 210 55 217 51 q 198 62 204 58 q 199 34 198 52 q 179 45 184 41 q 174 52 174 48 q 175 56 174 53 q 175 61 175 59 q 170 77 175 68 q 153 87 167 80 q 153 58 153 78 q 131 70 145 62 l 130 64 l 131 52 l 154 38 l 155 31 l 154 2 q 142 9 148 5 q 131 14 135 14 l 131 -12 l 104 -11 l 104 5 l 104 16 l 102 16 q 87 2 101 12 l 85 2 l 85 39 q 96 47 91 43 q 103 54 104 52 l 103 72 l 102 73 l 84 59 l 84 85 q 69 77 71 78 q 64 73 66 75 q 65 65 64 73 q 66 52 66 58 l 66 52 q 37 33 54 41 q 36 58 38 60 q 16 50 24 50 q 5 71 13 57 l 21 82 q 0 92 12 85 l 28 109 l 51 100 q 68 110 60 104 l 47 120 q 70 134 58 126 l 52 144 l 27 130 l -1 146 q 22 159 9 152 q 0 172 13 165 l 0 174 q 11 195 0 176 l 12 196 l 34 184 l 33 210 q 64 192 40 205 q 66 165 64 182 q 83 157 74 159 q 82 180 83 161 l 83 181 l 101 168 q 102 187 102 169 l 83 203 l 83 236 l 100 222 q 101 239 102 227 q 101 254 100 251 q 126 254 113 255 l 129 252 l 129 222 l 130 222 l 150 235 l 150 203 q 130 188 140 196 q 129 179 129 179 l 130 169 l 131 168 l 150 181 q 149 157 150 171 q 166 166 159 161 q 169 176 170 167 q 168 191 168 187 l 168 192 l 197 210 l 195 184 l 196 184 l 218 195 l 231 172 l 211 158 q 230 148 216 157 l 206 133 l 184 142 l 166 133 q 175 128 168 132 q 187 122 181 125 q 165 110 175 115 q 182 100 170 106 l 207 111 l 233 96 l 231 94 q 211 83 220 87 l 234 70 l 233 58 "},"":{"ha":274,"x_min":-1,"x_max":273,"o":"m 199 93 q 227 68 218 83 q 236 39 237 56 q 218 1 237 15 q 186 -9 203 -11 q 149 12 163 -7 q 135 47 140 26 q 119 12 131 26 q 84 -9 105 -7 q 54 -1 68 -9 q 33 36 33 15 q 43 68 33 52 q 72 93 54 83 q 35 96 53 90 q 10 111 22 100 q -1 141 1 123 q 2 157 -1 147 q 47 189 14 189 q 63 186 54 189 q 96 166 83 180 q 87 203 87 184 q 98 236 87 222 q 131 252 110 250 q 172 236 159 253 q 182 199 183 220 q 174 166 180 181 q 203 185 188 180 q 223 189 214 189 q 269 157 258 189 q 270 137 273 147 q 262 115 269 124 q 239 97 252 102 q 199 93 220 90 m 138 180 l 139 155 q 149 153 144 155 q 157 174 155 163 q 152 210 163 197 q 138 216 146 216 q 121 210 127 218 q 114 174 110 197 q 123 153 115 164 q 132 155 127 155 l 133 180 l 138 180 m 202 130 l 179 120 q 180 111 180 116 q 203 111 193 109 q 234 129 227 114 q 235 145 238 136 q 223 159 233 155 q 188 151 207 163 q 172 134 179 146 q 176 127 175 131 l 200 136 l 202 130 m 69 134 l 94 127 q 98 136 96 132 q 80 150 90 144 q 45 154 59 161 q 34 142 37 151 q 36 123 31 132 q 69 109 46 110 q 92 112 79 106 q 92 120 91 117 l 68 128 l 69 134 m 88 58 l 104 77 q 100 85 102 80 q 79 75 87 81 q 59 45 58 61 q 64 30 58 37 q 81 23 72 22 q 111 45 98 26 q 117 67 116 54 q 110 71 113 68 l 92 54 l 88 58 m 178 52 l 161 71 q 153 66 157 68 q 160 44 155 54 q 186 20 170 22 q 201 24 194 19 q 211 39 210 30 q 193 71 211 56 q 173 82 186 79 q 168 75 171 77 l 182 55 l 178 52 "},"":{"ha":252,"x_min":0,"x_max":254,"o":"m 232 145 q 247 138 243 144 q 252 125 252 132 q 247 110 254 115 q 232 104 243 104 q 227 104 231 104 l 155 115 q 152 111 155 113 l 210 69 q 221 50 221 60 q 216 35 222 41 q 202 30 210 28 q 182 41 190 28 l 140 99 q 136 96 138 96 l 146 24 q 146 20 146 22 q 141 5 146 12 q 126 -1 136 -1 q 113 4 119 -3 q 106 20 106 9 q 106 24 107 22 l 117 98 q 113 99 114 98 l 69 39 q 52 30 62 30 q 38 35 45 28 q 31 49 33 41 q 42 69 31 61 l 100 111 q 99 115 100 113 l 26 104 q 20 104 23 104 q 5 110 11 104 q 0 125 0 115 q 5 140 0 133 q 20 145 11 145 q 26 145 23 144 l 99 134 q 100 138 100 137 l 41 182 q 31 201 30 190 q 38 214 33 209 q 53 220 45 221 q 69 210 64 218 l 113 151 q 117 153 115 151 l 106 225 q 106 232 106 227 q 111 245 107 241 q 126 251 118 251 q 140 245 133 251 q 146 231 146 240 q 146 225 146 228 l 136 153 q 140 151 138 152 l 183 210 q 202 220 191 221 q 214 214 209 218 q 221 201 221 209 q 212 182 222 189 l 152 138 q 155 134 155 136 l 227 145 q 232 145 231 144 "},"":{"ha":258,"x_min":-1,"x_max":256,"o":"m 236 190 q 254 165 248 180 q 256 151 256 156 q 247 123 256 134 q 222 106 237 111 q 208 103 216 103 q 180 113 194 103 q 178 104 180 109 q 216 84 202 104 q 225 57 225 72 q 203 16 225 34 q 178 8 193 8 q 137 30 156 8 q 129 56 129 39 q 132 71 129 62 q 127 71 130 69 q 123 71 126 71 q 126 56 126 62 q 117 28 127 39 q 77 8 102 8 q 49 18 61 8 q 30 52 31 30 q 39 84 28 69 q 77 104 54 104 q 75 113 76 109 q 46 103 62 103 q 33 106 39 103 q 8 123 19 111 q -1 151 -1 136 q 1 165 -1 156 q 19 190 7 179 q 46 199 31 199 q 61 197 54 199 q 92 165 84 189 q 99 171 96 167 q 80 214 77 187 q 96 245 81 232 q 127 258 110 258 q 164 240 149 258 q 175 214 174 229 q 156 171 178 184 q 163 165 161 168 q 194 197 171 187 q 208 199 202 199 q 236 190 222 199 m 141 109 q 150 127 150 117 q 144 142 150 136 q 126 151 136 151 q 109 144 116 151 q 102 127 102 137 q 109 112 102 119 q 126 103 116 103 q 141 109 134 103 "},"":{"ha":195,"x_min":0,"x_max":196,"o":"m 117 43 q 101 12 113 20 q 77 -2 90 3 q 52 -7 65 -7 q 26 -2 38 -7 q 7 13 14 3 q 0 35 0 23 q 7 56 0 45 q 26 71 14 66 q 52 76 38 76 q 77 71 65 76 q 83 68 81 69 l 83 256 l 103 256 q 171 231 147 256 q 196 162 195 206 l 174 163 q 157 198 170 191 q 117 206 144 206 l 117 43 "},"":{"ha":228,"x_min":0,"x_max":229,"o":"m 102 166 l 102 -11 q 92 -32 102 -21 q 70 -48 81 -43 q 47 -53 59 -53 q 23 -48 34 -53 q 6 -34 12 -43 q 0 -14 0 -24 q 6 5 0 -4 q 23 19 12 14 q 47 24 34 24 q 70 19 59 24 q 76 16 73 18 l 76 186 l 229 242 l 229 37 q 223 17 229 26 q 206 3 217 8 q 182 -2 195 -2 q 158 3 170 -2 q 141 17 147 8 q 136 37 136 26 q 141 56 136 47 q 158 70 147 65 q 182 75 170 75 q 197 68 195 75 q 203 65 201 67 l 203 205 l 102 166 "},"":{"ha":252,"x_min":0,"x_max":254,"o":"m 76 237 l 254 237 l 254 37 q 248 17 254 26 q 231 3 242 8 q 208 -2 220 -2 q 184 3 195 -2 q 167 17 173 8 q 161 37 161 26 q 167 56 161 47 q 183 70 173 65 q 205 74 193 74 q 222 70 214 73 q 228 66 224 68 l 228 157 l 104 157 l 104 37 q 93 17 104 26 q 70 3 81 8 q 47 -2 59 -2 q 23 3 34 -2 q 6 17 12 8 q 0 37 0 26 q 6 56 0 47 q 23 70 12 65 q 47 75 34 75 q 70 70 59 75 q 76 66 73 68 l 76 237 m 104 209 l 104 183 l 228 183 l 228 209 l 104 209 "},"":{"ha":119,"x_min":1,"x_max":119,"o":"m 87 254 l 119 253 l 119 34 q 106 13 119 22 q 80 -3 93 3 q 54 -8 67 -8 q 26 -3 39 -8 q 7 13 14 3 q 1 34 1 22 q 7 55 1 45 q 26 70 14 65 q 54 75 39 75 q 80 71 67 75 q 87 66 83 68 l 87 254 "},"":{"ha":262,"x_min":1,"x_max":264,"o":"m 142 182 l 264 102 l 236 102 l 236 -10 l 184 -10 l 184 102 l 133 136 l 81 102 l 80 -10 l 29 -10 l 29 102 l 1 102 l 123 182 l 123 206 l 95 206 l 95 225 l 123 225 l 123 254 l 142 254 l 142 225 l 170 225 l 170 206 l 142 206 l 142 182 m 133 84 q 146 80 140 84 q 157 70 153 77 q 161 56 157 69 l 192 -10 l 70 -10 l 104 56 q 108 70 108 69 q 119 80 112 77 q 133 84 125 84 "},"":{"ha":215,"x_min":1,"x_max":216,"o":"m 50 202 q 53 191 50 196 q 62 182 56 185 q 75 179 68 179 q 87 182 81 179 q 96 191 93 185 q 99 202 99 196 q 96 214 99 208 q 87 222 93 220 q 75 225 81 225 q 62 222 68 225 q 53 214 56 220 q 50 202 50 208 m 87 146 q 75 145 85 145 q 47 152 60 145 q 26 173 33 159 q 19 201 19 186 q 26 228 19 215 q 47 249 33 241 q 75 256 60 256 q 103 249 90 256 q 123 228 116 241 q 130 201 130 215 q 123 173 130 186 q 116 162 118 163 l 136 128 q 140 153 135 134 q 154 188 145 172 q 174 211 163 204 q 189 216 182 216 q 195 215 193 216 q 210 201 204 212 q 216 172 216 190 q 212 134 216 153 q 197 99 206 115 q 178 77 188 83 q 176 71 176 76 q 208 5 176 54 l 176 -11 q 132 50 144 50 q 130 49 131 50 q 100 43 119 43 q 63 48 82 43 q 28 63 44 54 q 5 83 13 72 q 1 98 1 91 q 1 103 1 100 q 16 119 4 113 q 45 125 27 125 q 83 119 64 125 q 109 111 101 115 l 87 146 "},"":{"ha":248,"x_min":-1,"x_max":249,"o":"m 102 210 q 105 199 102 205 q 113 191 108 194 q 124 189 118 189 q 135 191 130 189 q 143 199 140 194 q 146 210 146 205 q 143 221 146 216 q 135 229 140 227 q 124 232 130 232 q 113 229 118 232 q 105 221 108 227 q 102 210 102 216 m 110 166 q 102 171 108 167 q 85 187 91 176 q 79 210 79 198 q 85 232 79 221 q 102 249 91 243 q 124 254 113 254 q 146 249 136 254 q 163 232 157 243 q 169 210 169 221 q 163 187 169 198 q 146 171 157 176 q 140 166 140 167 l 140 154 l 186 154 l 186 121 l 141 121 l 141 26 q 173 35 156 28 q 197 54 186 43 l 183 68 l 249 83 l 234 17 l 220 30 q 190 7 210 20 q 125 -7 158 -7 q 56 12 92 -7 q 28 31 40 20 l 14 17 l -1 83 l 65 68 l 54 56 q 77 39 63 46 q 112 27 98 28 l 112 121 l 62 121 l 62 154 l 110 154 l 110 166 "},"":{"ha":253,"x_min":0,"x_max":254,"o":"m 127 254 q 191 237 160 254 q 238 190 221 221 q 254 125 254 159 q 238 60 254 90 q 191 13 221 29 q 127 -4 160 -4 q 63 13 94 -4 q 16 60 33 29 q 0 125 0 90 q 16 190 0 159 q 63 237 33 221 q 127 254 94 254 m 111 223 q 73 212 91 222 q 39 178 51 200 q 27 132 27 157 q 39 85 27 106 q 47 72 43 77 l 111 134 l 111 223 m 61 50 q 76 40 68 44 q 113 28 94 30 l 113 102 l 61 50 m 140 28 q 178 40 159 30 q 193 50 186 44 l 140 102 l 140 28 m 205 72 q 214 85 210 77 q 225 132 225 106 q 213 178 225 157 q 180 212 201 200 q 142 224 161 222 l 142 135 l 205 72 "},"":{"ha":221,"x_min":-1,"x_max":222,"o":"m 97 73 q 55 47 82 48 q 16 62 32 47 q -1 106 -1 77 q 111 254 -1 165 q 222 106 222 165 q 206 62 222 77 q 166 47 190 47 q 119 73 132 47 q 176 12 125 12 l 185 12 l 185 -8 l 36 -8 l 36 12 l 45 12 q 97 73 94 12 "},"":{"ha":251,"x_min":0,"x_max":251,"o":"m 140 58 q 189 14 150 14 l 197 14 l 197 -6 l 54 -6 l 54 14 l 62 14 q 113 58 101 14 l 113 82 l 104 82 q 98 73 102 81 q 79 52 92 59 q 52 45 66 45 q 26 52 39 45 q 7 72 14 59 q 0 100 0 85 q 7 126 0 113 q 26 146 14 140 q 52 153 39 153 q 79 146 66 153 q 98 127 92 140 q 104 115 102 118 l 113 115 l 113 146 q 99 153 107 148 q 79 172 86 159 q 73 199 73 185 q 79 227 73 214 q 99 247 86 239 q 125 254 111 254 q 152 247 139 254 q 171 227 164 239 q 178 199 178 214 q 171 172 178 185 q 152 153 164 159 q 140 146 143 148 l 140 115 l 146 115 q 153 127 149 118 q 172 146 159 140 q 199 153 184 153 q 225 146 212 153 q 244 126 237 140 q 251 100 251 113 q 244 72 251 85 q 225 52 237 59 q 199 45 212 45 q 172 52 184 45 q 153 73 159 59 q 146 82 148 81 l 140 82 l 140 58 "},"":{"ha":264,"x_min":1,"x_max":265,"o":"m 265 121 q 133 -9 171 84 q 1 121 95 84 q 133 252 95 159 q 265 121 171 159 "},"":{"ha":256,"x_min":1,"x_max":258,"o":"m 130 -7 q 47 97 94 62 q 1 179 1 132 q 19 235 1 216 q 65 254 38 254 q 130 193 113 254 q 193 254 145 254 q 239 235 220 254 q 258 179 258 216 q 211 97 258 132 q 130 -7 165 62 "},"":{"ha":271,"x_min":-1,"x_max":278,"o":"m 139 51 l 53 -12 l 85 90 l -1 153 l 106 153 l 139 254 l 172 153 l 278 153 l 192 90 l 225 -12 l 139 51 "},"":{"ha":293,"x_min":0,"x_max":293,"o":"m 162 149 l 162 46 q 155 18 161 29 q 139 1 149 7 q 107 -5 128 -4 q 82 1 94 -5 q 63 19 69 7 q 56 61 56 31 l 83 61 q 87 33 83 38 q 95 24 91 28 q 108 20 100 20 q 122 23 115 20 q 131 32 129 26 q 133 46 133 38 l 133 149 q 98 137 117 147 q 96 136 97 137 q 88 141 92 139 q 39 154 64 154 q 5 144 19 154 l 0 151 q 63 235 14 206 q 136 254 96 252 l 141 274 l 151 275 l 156 254 q 231 235 197 252 q 293 149 281 204 l 287 140 q 250 154 273 153 q 204 141 223 156 q 197 136 200 139 q 195 137 196 137 q 162 149 176 147 "},"":{"ha":261,"x_min":-1,"x_max":262,"o":"m 131 203 q 171 193 152 203 q 201 164 191 183 q 211 124 211 144 q 201 84 211 103 q 171 54 191 64 q 131 44 152 44 q 91 54 111 44 q 62 84 72 64 q 52 124 52 103 q 62 164 52 144 q 91 193 72 183 q 131 203 111 203 m 121 197 l 121 254 l 140 254 l 140 197 l 121 197 m 121 -7 l 121 49 l 140 49 l 140 -7 l 121 -7 m 56 115 l -1 115 l -1 133 l 56 133 l 56 115 m 262 115 l 206 115 l 206 133 l 262 133 l 262 115 m 71 170 l 31 210 l 45 223 l 85 184 l 71 170 m 218 24 l 178 64 l 191 77 l 231 37 l 218 24 m 178 184 l 218 223 l 231 210 l 191 170 l 178 184 m 31 37 l 71 77 l 85 64 l 45 24 l 31 37 "},"":{"ha":185,"x_min":0,"x_max":184,"o":"m 78 159 l 184 157 l 71 -14 l 109 104 l 0 100 l 114 270 l 78 159 "},"":{"ha":254,"x_min":-1,"x_max":256,"o":"m 127 -7 q 46 97 92 62 q -1 179 -1 132 q 18 235 -1 216 q 63 254 37 254 q 127 215 112 254 q 192 254 144 254 q 237 235 218 254 q 256 179 256 216 q 210 97 256 132 q 127 -7 163 62 m 126 161 q 54 213 85 227 q 33 172 22 200 q 65 127 43 144 q 127 62 88 109 q 188 131 157 106 q 222 177 219 155 q 200 215 226 199 q 126 161 175 231 "},"":{"ha":262,"x_min":0,"x_max":262,"o":"m 191 41 l 168 111 l 227 153 l 154 153 l 131 223 l 109 153 l 35 153 l 94 111 l 72 41 l 131 83 l 191 41 m 131 254 q 196 237 165 254 q 245 189 228 220 q 262 123 262 157 q 245 58 262 90 q 196 9 228 26 q 131 -7 165 -7 q 65 9 97 -7 q 17 58 34 26 q 0 123 0 90 q 17 189 0 157 q 65 237 34 220 q 131 254 97 254 "},"":{"ha":260,"x_min":-1,"x_max":261,"o":"m 130 253 q 196 236 164 253 q 244 188 227 219 q 261 122 261 157 q 244 57 261 88 q 196 8 227 25 q 130 -9 164 -9 q 65 8 96 -9 q 16 57 33 25 q -1 122 -1 88 q 16 188 -1 157 q 65 236 33 219 q 130 253 96 253 m 64 171 q 61 159 61 165 q 64 148 61 153 q 73 139 67 142 q 84 136 78 136 q 96 139 90 136 q 104 148 101 142 q 107 159 107 153 q 104 171 107 165 q 96 179 101 176 q 84 182 90 182 q 73 179 78 182 q 68 176 70 178 l 64 171 m 156 171 q 153 159 153 165 q 156 148 153 153 q 165 139 159 142 q 176 136 170 136 q 188 139 182 136 q 196 148 193 142 q 199 159 199 153 q 196 171 199 165 q 188 179 193 176 q 176 182 182 182 q 165 179 170 182 q 160 176 162 178 l 156 171 m 199 95 q 132 59 176 60 q 64 94 79 61 l 37 94 q 40 89 38 92 q 78 48 52 63 q 131 33 104 33 q 181 46 157 33 q 220 89 204 60 q 223 95 222 92 l 199 95 "},"":{"ha":261,"x_min":-1,"x_max":262,"o":"m 131 252 q 197 235 165 252 q 245 187 229 218 q 262 121 262 155 q 245 55 262 87 q 197 6 229 24 q 131 -11 165 -11 q 65 6 97 -11 q 16 55 33 24 q -1 121 -1 87 q 16 187 -1 155 q 65 235 33 218 q 131 252 97 252 m 55 119 q 84 45 55 72 q 111 31 97 34 l 117 30 l 117 43 q 110 47 113 44 q 106 63 106 52 l 106 175 q 114 193 106 191 l 117 195 l 117 208 q 90 197 103 206 q 55 119 55 170 m 145 208 l 145 195 l 151 193 q 156 178 156 188 l 156 60 q 147 44 156 47 l 145 43 l 145 31 q 166 37 153 31 q 202 83 190 50 q 207 118 207 100 l 207 120 q 174 197 207 170 q 146 208 165 204 l 145 208 "},"":{"ha":266,"x_min":1,"x_max":266,"o":"m 134 255 q 200 238 168 255 q 249 189 232 220 q 266 122 266 157 q 249 56 266 87 q 200 6 232 24 q 134 -11 168 -11 q 67 6 99 -11 q 18 56 35 24 q 1 122 1 87 q 18 189 1 157 q 67 238 35 220 q 134 255 99 255 m 91 203 q 98 197 91 198 q 106 193 104 197 q 107 185 107 190 l 107 62 q 100 54 107 55 q 92 50 92 52 q 92 46 92 50 l 92 45 q 99 39 94 39 l 102 39 l 162 39 q 172 45 172 40 l 172 47 q 160 54 172 53 q 156 66 156 56 l 156 214 q 95 210 95 212 q 91 203 91 208 "},"":{"ha":260,"x_min":-3,"x_max":261,"o":"m 135 218 l 135 205 q 142 197 140 202 q 145 172 145 190 q 134 132 145 142 q 108 112 125 125 q 97 99 98 102 l 97 99 q 119 105 109 105 q 160 124 135 115 q 193 172 193 140 q 168 212 193 198 q 135 218 155 218 m 68 178 l 68 176 q 83 153 68 161 q 94 151 89 151 q 117 167 109 151 q 119 175 119 171 l 119 175 q 106 196 119 189 q 104 199 104 197 l 104 199 q 112 203 106 202 l 113 203 l 113 217 q 82 204 95 214 q 68 178 68 192 m 175 80 l 173 80 q 127 87 165 80 q 114 87 122 87 q 71 62 83 87 q 68 49 68 55 l 68 46 q 73 40 68 41 l 75 40 q 85 47 77 40 q 94 49 90 49 q 129 40 110 47 q 151 36 142 36 q 182 49 167 36 q 197 75 193 61 q 199 89 199 83 l 199 91 q 193 98 198 98 q 186 90 188 98 q 175 80 184 80 m 129 254 q 195 236 163 254 q 244 187 227 219 q 261 121 261 155 q 244 55 261 87 q 195 6 227 23 q 129 -11 163 -11 q 63 6 94 -11 q 14 55 31 23 q -3 121 -3 87 q 14 187 -3 155 q 63 236 31 219 q 129 254 94 254 "},"":{"ha":259,"x_min":-3,"x_max":260,"o":"m 138 213 l 138 199 q 148 194 144 199 q 152 182 152 191 l 152 146 q 137 133 152 135 q 128 127 129 133 l 128 125 q 141 119 128 119 q 149 114 147 118 q 152 102 152 111 l 152 66 q 139 48 152 51 q 138 47 139 47 l 138 34 l 144 34 q 197 59 179 34 q 203 83 203 70 q 192 112 203 99 q 165 125 184 119 l 165 125 q 182 133 175 129 q 200 168 200 146 q 174 205 200 193 q 138 213 159 213 m 72 172 q 85 151 72 157 q 94 149 89 149 q 115 163 109 149 q 117 172 117 168 q 110 186 117 182 q 104 193 104 190 q 110 198 105 196 q 115 200 115 199 l 115 212 q 84 199 98 210 q 72 172 72 187 m 66 73 q 92 39 66 51 q 115 34 102 36 l 115 47 l 112 47 q 100 52 105 47 l 100 52 l 100 53 q 107 60 100 54 q 114 75 114 67 q 100 96 114 88 q 90 98 95 98 q 68 82 75 98 q 66 73 66 77 m 129 253 q 194 236 163 253 q 243 187 226 218 q 260 121 260 155 q 243 55 260 87 q 194 7 226 24 q 129 -10 163 -10 q 63 7 94 -10 q 14 55 31 24 q -3 121 -3 87 q 14 187 -3 155 q 63 236 31 218 q 129 253 94 253 "},"":{"ha":266,"x_min":-1,"x_max":264,"o":"m 122 62 q 116 49 122 49 q 105 41 105 47 l 105 39 q 112 33 105 35 q 115 33 113 33 l 179 33 q 189 37 186 33 l 190 39 l 190 41 q 178 49 190 47 q 174 54 174 51 q 173 57 173 54 l 173 75 l 174 75 l 189 75 q 197 80 195 75 l 197 83 q 191 88 195 88 l 190 88 l 174 88 l 173 89 l 173 205 q 171 216 173 216 l 168 217 l 153 217 q 143 212 146 217 q 122 182 123 185 l 122 62 m 46 83 l 46 82 q 50 75 46 77 q 56 74 53 74 l 107 74 l 107 88 l 62 88 l 62 88 l 62 88 l 107 150 l 107 170 q 48 91 52 96 q 46 83 46 86 m 132 252 q 198 235 166 252 q 247 186 230 218 q 264 120 264 155 q 247 54 264 85 q 198 5 230 22 q 132 -12 166 -12 q 66 5 98 -12 q 17 54 34 22 q -1 120 -1 85 q 17 186 -1 155 q 66 235 34 218 q 132 252 98 252 "},"":{"ha":262,"x_min":-1,"x_max":263,"o":"m 90 212 l 86 169 l 86 169 q 119 166 102 166 q 164 175 151 166 q 191 206 184 187 q 193 212 193 210 q 157 205 180 205 l 153 205 q 90 212 130 205 m 84 157 q 81 120 81 123 q 87 114 81 115 l 88 114 q 102 121 90 114 q 119 126 110 125 l 119 143 l 118 143 q 94 130 106 140 l 93 130 l 93 130 l 93 130 l 95 155 l 95 155 l 84 157 m 138 145 l 138 126 q 149 117 146 123 q 151 103 151 111 l 151 67 q 141 43 151 47 l 138 43 l 138 28 l 141 28 q 185 42 166 28 q 204 87 204 59 q 165 142 204 127 q 138 145 152 145 m 73 68 q 103 32 73 45 q 121 28 115 28 l 122 28 l 122 42 q 119 43 122 43 q 110 49 110 45 q 116 56 110 50 q 122 72 122 63 q 108 92 122 85 q 98 94 103 94 q 75 78 82 94 q 73 68 73 73 m 131 253 q 197 236 165 253 q 246 187 229 219 q 263 121 263 155 q 246 55 263 87 q 197 7 229 24 q 131 -10 165 -10 q 65 7 97 -10 q 16 55 33 24 q -1 121 -1 87 q 16 187 -1 155 q 65 236 33 219 q 131 253 97 253 "},"":{"ha":262,"x_min":-1,"x_max":262,"o":"m 52 121 q 73 50 52 77 q 102 31 89 35 q 116 28 111 28 l 116 41 q 111 43 116 41 q 105 56 105 45 l 105 182 q 116 199 105 195 q 119 200 119 200 l 119 213 l 118 213 q 68 183 92 213 q 52 121 52 158 m 140 213 l 140 200 q 146 199 140 200 q 153 193 153 196 l 153 191 q 146 180 153 189 q 142 170 142 175 q 157 155 142 161 q 164 153 161 153 l 168 153 q 188 163 181 153 q 191 174 191 168 q 168 207 191 194 q 140 213 154 213 m 132 117 l 132 102 l 132 102 q 142 106 138 106 l 144 106 q 151 94 151 104 l 151 55 q 144 43 151 45 q 141 41 141 41 l 141 28 l 142 28 q 189 47 169 28 q 203 83 204 66 q 187 116 205 101 q 159 125 174 125 q 132 117 146 125 m 131 254 q 196 237 165 254 q 245 188 228 220 q 262 123 262 157 q 245 57 262 88 q 196 8 228 25 q 131 -9 165 -9 q 65 8 96 -9 q 16 57 33 25 q -1 123 -1 88 q 16 188 -1 157 q 65 237 33 220 q 131 254 96 254 "},"":{"ha":261,"x_min":0,"x_max":262,"o":"m 90 190 l 90 190 l 91 205 l 82 205 l 82 205 l 74 151 l 83 151 l 83 154 q 96 170 83 170 q 140 163 104 170 l 148 163 q 184 185 174 163 q 188 199 188 194 q 183 205 186 205 q 176 199 181 205 q 172 197 174 197 q 147 204 168 197 q 127 208 136 208 q 90 190 108 208 m 147 142 q 121 111 147 138 q 100 63 100 87 l 100 63 q 119 31 100 40 q 128 29 123 29 q 148 38 140 29 q 156 60 156 46 q 152 91 156 66 l 152 96 l 152 98 q 163 146 152 122 l 163 146 q 147 142 153 142 m 131 252 q 196 235 165 252 q 245 187 228 218 q 262 122 262 156 q 245 56 262 87 q 196 8 228 25 q 131 -9 165 -9 q 65 8 97 -9 q 17 56 34 25 q 0 122 0 87 q 17 187 0 156 q 65 235 34 218 q 131 252 97 252 "},"":{"ha":265,"x_min":-1,"x_max":265,"o":"m 65 162 q 102 121 65 131 l 102 121 q 80 112 86 117 q 60 76 60 98 l 60 72 q 84 35 60 48 q 121 29 100 29 l 121 42 q 113 52 115 42 l 113 56 l 113 102 q 121 115 113 111 l 121 128 q 114 134 118 128 q 113 141 113 138 l 113 180 q 118 194 113 191 l 121 195 l 121 208 q 87 200 104 208 q 65 162 65 186 m 144 208 l 144 195 q 151 189 151 192 q 153 176 153 180 l 153 143 q 149 131 150 131 q 144 128 146 128 l 144 115 q 149 111 149 112 q 153 99 153 104 l 153 59 q 146 43 153 45 l 144 42 l 144 29 q 182 37 165 29 q 204 74 204 50 q 178 115 204 102 q 163 121 173 118 l 163 121 q 180 128 174 125 q 199 162 199 140 q 176 201 199 187 q 144 208 161 208 m 132 254 q 199 236 167 254 q 248 187 231 219 q 265 121 265 155 q 248 54 265 86 q 199 5 231 22 q 132 -12 167 -12 q 66 5 98 -12 q 17 54 34 22 q -1 121 -1 86 q 17 187 -1 155 q 66 236 34 219 q 132 254 98 254 "},"":{"ha":263,"x_min":1,"x_max":264,"o":"m 132 254 q 198 237 167 254 q 247 189 230 220 q 264 123 264 157 q 247 57 264 89 q 198 9 230 26 q 132 -8 167 -8 q 67 9 98 -8 q 18 57 35 26 q 1 123 1 89 q 18 189 1 157 q 67 237 35 220 q 132 254 98 254 m 207 121 q 184 191 207 165 q 155 211 170 208 q 142 214 146 214 l 142 201 q 147 199 142 200 q 153 186 153 197 l 153 60 q 142 43 153 47 q 140 41 140 42 l 140 29 l 140 29 q 189 58 166 29 q 207 121 207 83 m 120 28 l 120 41 q 114 42 120 41 q 109 48 109 45 l 109 50 q 115 60 109 52 q 119 71 119 66 q 104 86 119 79 q 96 87 100 87 l 94 87 q 73 79 80 87 q 69 66 69 73 q 94 35 69 47 q 120 28 107 28 m 132 125 l 132 140 l 132 140 q 121 136 125 136 l 120 136 q 112 149 112 138 l 113 187 q 119 199 113 197 q 123 201 123 200 l 123 214 l 121 214 q 75 195 95 214 q 62 159 60 175 q 77 125 59 140 q 104 117 90 117 q 132 125 118 117 "},"":{"ha":299,"x_min":100,"x_max":203,"o":"m 203 239 l 202 233 l 202 227 l 195 227 q 172 219 178 227 l 169 213 l 169 207 l 169 163 l 169 119 l 169 75 l 169 30 q 187 13 170 17 l 195 12 l 202 12 l 202 -1 l 186 -1 q 154 -1 172 -1 l 136 -1 l 118 -1 l 100 -1 l 100 12 l 106 12 l 116 13 q 131 21 123 13 l 134 29 l 134 74 l 134 119 l 134 164 l 134 209 q 125 222 132 219 q 109 225 118 225 q 100 225 105 225 l 100 232 l 100 239 l 113 239 l 126 239 l 139 239 l 151 239 l 164 239 l 177 239 l 190 239 l 203 239 "},"":{"ha":313,"x_min":-1,"x_max":203,"o":"m 0 246 l 26 246 l 51 246 l 77 246 l 102 246 l 153 246 l 178 246 l 203 246 l 203 233 l 192 233 l 180 233 q 167 210 167 229 l 167 167 l 167 123 l 167 79 l 167 58 l 167 36 q 203 12 174 13 l 203 0 l 177 0 l 152 0 l 126 0 l 101 0 l 76 0 l 50 0 l 25 0 l -1 0 l -1 15 q 28 21 20 14 q 36 43 36 28 l 36 72 l 36 100 l 36 129 l 36 157 l 36 168 q 36 195 36 178 l 36 212 q 28 229 37 222 q 0 234 20 235 l 0 246 m 73 212 l 73 191 l 73 170 l 73 126 l 73 83 l 73 62 l 73 41 l 73 35 l 73 31 q 92 14 74 20 l 109 14 q 130 36 130 18 l 130 58 l 130 80 l 130 102 l 130 123 l 130 168 l 130 189 l 130 211 q 116 232 131 228 l 92 232 q 73 212 73 232 "},"":{"ha":325,"x_min":0,"x_max":292,"o":"m 0 234 l 37 234 l 73 234 l 109 234 l 145 234 l 181 234 l 218 234 l 254 234 l 290 234 q 292 232 292 234 l 292 223 q 271 218 292 222 q 260 204 260 211 l 260 173 l 260 141 l 260 122 q 260 67 260 102 l 259 33 q 278 14 262 15 l 292 14 l 292 0 l 255 0 l 219 0 l 182 0 l 146 0 l 109 0 l 73 0 l 37 0 l 0 0 l 0 7 l 0 16 l 17 16 q 33 47 35 26 l 33 87 l 33 127 l 33 166 l 33 186 l 33 206 q 17 220 29 218 l 8 220 l 0 220 l 0 227 l 0 234 m 67 205 l 67 165 l 67 124 l 67 83 l 67 43 q 85 14 67 20 l 110 14 q 130 44 132 19 l 130 64 l 130 85 l 130 105 l 130 125 l 130 146 l 130 156 l 130 166 l 130 186 l 130 207 q 111 220 130 219 l 90 220 q 67 205 67 220 m 165 205 l 165 183 l 165 161 l 164 139 l 164 117 l 164 94 l 164 73 l 164 50 l 164 28 q 182 13 167 16 l 203 13 q 225 33 225 17 l 225 75 l 225 117 l 225 159 l 225 202 q 205 221 224 218 l 189 221 q 165 205 168 221 "},"":{"ha":422,"x_min":0,"x_max":362,"o":"m 361 243 l 361 235 l 361 229 l 348 228 q 321 208 328 228 l 302 161 l 283 113 l 264 64 l 244 20 l 273 20 l 303 20 l 333 20 l 362 20 l 362 0 l 340 0 l 317 0 l 294 0 l 272 0 l 249 0 l 227 0 l 203 0 l 181 0 l 159 0 l 136 0 l 113 0 l 91 0 l 68 0 l 45 0 l 22 0 l 0 0 l 0 18 l 21 19 q 34 53 35 26 l 34 94 l 34 134 l 34 174 l 34 195 l 34 214 q 16 228 32 226 l 0 228 l 0 235 l 0 243 l 45 243 l 90 243 l 136 243 l 180 243 l 226 243 l 271 243 l 316 243 l 361 243 m 68 210 l 68 165 l 68 122 l 68 78 l 68 34 q 80 20 68 27 l 110 20 l 140 20 l 171 20 l 201 20 l 182 70 l 163 120 l 143 170 l 133 195 l 123 220 q 95 229 122 229 q 68 210 68 229 m 166 219 q 189 158 175 193 l 203 123 l 218 89 l 231 54 l 262 125 l 277 161 l 292 197 q 298 214 298 209 l 298 218 q 288 228 296 228 l 260 228 l 232 228 l 204 228 l 176 228 q 166 219 166 228 "},"":{"ha":333,"x_min":0,"x_max":267,"o":"m 0 237 l 33 237 l 66 237 l 100 237 l 133 237 l 165 237 l 199 237 l 232 237 l 265 237 l 265 224 l 250 223 q 225 198 233 222 l 212 164 l 205 148 q 188 102 199 131 l 176 74 l 165 45 l 153 16 l 168 16 l 182 16 l 196 16 l 210 16 l 238 16 l 252 16 l 267 16 l 267 0 l 233 0 l 200 0 l 167 0 l 134 0 l 100 0 l 67 0 l 34 0 l 17 0 l 0 0 l 0 16 l 14 16 l 28 16 l 43 16 l 57 16 l 71 16 l 85 16 l 100 16 l 114 16 l 104 40 l 94 65 l 85 90 l 75 115 l 55 165 l 45 189 l 35 214 q 0 225 28 227 l 0 237 m 79 208 l 94 169 l 110 130 l 125 92 l 140 53 l 142 53 l 158 92 l 174 130 l 189 169 l 197 188 l 205 208 q 194 222 208 222 l 168 222 l 140 222 l 114 222 l 87 222 q 79 208 76 220 "},"":{"ha":362,"x_min":-1,"x_max":363,"o":"m 1 241 l 45 241 l 91 241 l 136 241 l 182 241 l 227 241 l 273 241 l 317 241 l 363 241 l 363 226 q 330 202 332 225 l 330 165 l 330 124 l 330 83 l 330 43 q 363 23 329 20 l 363 0 l 314 0 l 269 0 l 224 0 l 179 0 l 134 0 l 90 0 l 44 0 l -1 0 l -1 20 l 59 20 l 89 20 l 119 20 l 102 61 l 85 102 l 69 144 q 40 205 53 181 q 0 224 34 225 l 1 241 m 79 212 q 90 181 82 199 l 97 166 l 105 149 l 113 130 l 120 113 l 127 94 l 135 76 l 142 58 l 150 77 l 158 96 l 173 133 l 186 167 l 193 186 l 201 204 l 203 214 q 192 221 199 221 l 166 221 l 140 221 l 115 221 l 90 221 q 79 212 79 221 m 156 22 l 186 22 l 216 22 l 247 22 l 262 22 l 277 22 q 292 45 292 28 l 292 84 l 292 123 l 292 162 l 292 197 q 269 220 292 214 q 226 196 235 221 l 217 174 l 208 155 l 201 133 l 192 111 l 183 88 l 174 66 l 165 43 l 156 22 "},"":{"ha":437,"x_min":-1,"x_max":438,"o":"m 437 236 l 437 219 l 418 219 q 404 202 404 217 l 404 159 l 404 138 l 404 117 l 404 75 l 404 33 q 415 16 404 21 l 438 16 l 438 -1 l 383 -1 l 328 -1 l 274 -1 l 219 -1 l 164 -1 l 109 -1 l 54 -1 l -1 -1 l -1 18 l 28 18 l 57 18 l 86 18 l 115 18 l 105 41 l 96 64 l 86 87 l 77 110 l 68 132 l 58 155 l 49 178 l 39 201 q 0 220 26 223 l 0 236 l 54 236 l 82 236 l 109 236 l 164 236 l 218 236 l 273 236 l 328 236 l 382 236 l 437 236 m 80 206 l 87 187 l 95 168 l 102 149 l 111 130 l 118 111 l 125 91 l 134 72 l 141 53 l 149 72 l 157 91 l 164 111 l 172 130 l 180 149 l 188 168 l 195 186 l 203 206 q 194 222 208 221 l 168 222 l 141 222 l 115 222 l 88 222 q 80 206 74 222 m 308 199 l 308 159 l 308 117 l 308 77 l 308 35 q 328 16 308 21 l 353 16 q 369 33 369 20 l 369 54 l 369 76 l 370 119 l 370 162 l 370 205 q 350 220 366 220 l 328 220 q 308 199 308 218 m 157 18 l 183 18 l 210 18 l 237 18 l 263 18 q 275 40 275 22 l 275 79 l 275 119 l 275 159 l 275 198 q 245 218 275 220 q 227 201 231 214 l 210 155 l 192 109 l 174 64 l 157 18 "},"":{"ha":427,"x_min":-1,"x_max":429,"o":"m -1 246 l 54 246 l 107 246 l 161 246 l 214 246 l 268 246 l 321 246 l 375 246 l 429 246 l 427 224 l 427 224 q 399 205 403 224 l 399 162 l 398 125 l 398 81 l 398 38 q 416 20 403 20 l 427 19 l 427 0 l 373 0 l 319 1 l 267 1 l 213 1 l 159 1 l 106 1 l 53 1 l -1 1 l -1 20 l 24 20 l 49 20 l 73 20 l 98 20 l 92 41 l 85 62 l 71 104 l 58 139 q 31 215 44 181 q -1 223 17 226 l -1 246 m 67 213 l 81 172 l 95 131 l 108 97 l 122 56 l 134 92 l 148 125 l 160 156 q 176 208 172 191 l 176 215 q 167 222 173 222 l 144 222 l 122 222 l 100 222 l 77 222 q 67 213 67 222 m 225 20 q 239 38 239 28 l 239 81 l 239 125 l 239 162 l 239 205 q 226 223 239 218 l 212 222 q 189 182 201 218 q 159 96 183 166 l 147 58 l 135 20 l 157 20 l 180 20 l 203 20 l 225 20 m 269 205 l 269 161 l 268 125 l 268 81 l 268 37 q 284 20 268 26 l 289 20 q 304 41 301 20 l 304 85 l 304 126 l 304 165 l 304 208 q 294 223 299 222 l 283 224 q 269 205 269 218 m 334 204 l 334 161 l 334 125 l 334 81 l 334 38 q 350 20 334 26 l 355 20 q 369 40 370 25 l 369 83 l 370 125 l 370 164 l 370 208 q 356 222 363 222 l 348 222 q 334 204 334 218 "},"":{"ha":321,"x_min":-1,"x_max":327,"o":"m 324 240 l 324 225 l 315 224 q 277 199 294 223 l 260 175 l 243 151 l 226 125 l 241 101 l 256 76 l 271 52 l 287 27 q 327 15 301 15 l 327 -1 l 307 -1 l 286 -1 l 265 -1 l 245 -1 l 224 -1 l 204 -1 l 184 -1 l 163 -1 l 142 -1 l 122 -1 l 102 -1 l 81 -1 l 61 -1 l 40 -1 l 20 -1 l -1 -1 l 0 15 l 18 15 q 33 41 33 20 l 34 61 q 34 123 34 94 l 33 153 l 33 182 l 33 212 q 12 227 30 227 l 0 227 l 0 240 l 20 240 l 41 240 l 61 240 l 81 240 l 101 240 l 121 240 l 142 240 l 162 240 l 182 240 l 203 240 l 223 240 l 243 240 l 264 240 l 283 240 l 304 240 l 324 240 m 68 208 l 68 186 l 68 165 l 68 142 l 68 121 l 68 99 l 68 77 l 68 55 l 68 33 q 85 16 73 16 l 103 17 q 139 45 122 22 l 155 69 l 172 92 l 189 116 l 174 138 l 160 160 l 146 182 q 123 217 132 204 q 81 224 115 228 q 68 208 68 218 m 172 211 l 182 195 l 192 178 l 212 146 l 224 163 l 235 180 l 247 196 l 258 212 q 249 224 258 224 l 233 224 l 216 224 l 199 224 l 183 224 q 172 211 172 224 m 199 95 l 188 79 l 177 64 l 165 48 l 155 33 l 150 23 q 159 17 152 17 l 176 17 l 194 17 l 212 17 l 229 17 q 240 27 240 17 l 230 44 l 220 61 l 209 78 l 199 95 "},"":{"ha":240,"x_min":0,"x_max":241,"o":"m 0 241 l 31 241 l 45 241 l 60 241 l 90 241 l 120 241 l 151 241 l 180 241 l 210 241 l 225 241 l 240 241 l 240 227 l 231 227 q 208 219 218 227 l 191 195 l 174 172 l 157 148 l 140 124 l 153 104 l 165 83 l 177 63 q 205 24 189 43 q 232 17 217 17 l 239 17 q 241 15 241 17 l 241 0 l 212 0 l 181 0 l 151 0 l 121 0 l 91 0 l 60 0 l 31 0 l 0 0 l 0 17 l 9 17 q 48 41 30 16 l 57 54 l 66 66 l 84 92 l 102 117 l 88 140 l 74 163 l 60 185 q 33 220 47 209 q 0 227 20 228 l 0 241 m 88 210 l 95 197 l 105 180 l 115 164 l 124 148 l 136 163 l 149 180 l 161 196 l 173 212 q 174 221 177 216 q 161 226 171 226 l 146 226 l 131 226 l 116 226 l 101 226 q 88 210 83 225 m 114 98 l 102 82 l 90 66 l 77 50 q 64 27 64 34 l 64 24 q 75 18 64 17 l 92 18 l 110 18 l 127 18 l 145 18 q 159 27 159 17 q 146 53 156 37 l 135 68 l 125 83 l 114 98 "},"":{"ha":321,"x_min":-1,"x_max":323,"o":"m -1 241 l 20 241 l 40 241 l 81 241 l 121 241 l 161 241 l 202 241 l 242 241 l 262 241 l 283 241 l 303 241 l 323 241 l 323 227 q 290 208 290 224 l 290 165 l 290 121 l 290 77 l 290 33 q 304 15 290 19 l 322 15 l 322 0 l 281 0 l 241 0 l 201 0 l 161 0 l 121 0 l 81 0 l 41 0 l 0 0 l 0 15 l 17 15 q 37 25 28 16 l 54 50 l 70 73 l 86 97 l 94 109 l 102 122 l 87 144 l 81 155 l 73 166 l 58 189 l 52 199 l 47 205 l 44 211 q 24 223 40 222 l -1 223 l -1 241 m 231 224 q 201 207 209 224 l 186 186 l 171 166 l 155 146 l 140 125 l 147 114 l 155 102 l 168 79 l 182 56 l 197 32 q 214 17 205 18 l 229 17 l 243 17 q 255 33 257 19 l 255 77 l 255 98 l 255 120 l 255 163 l 255 184 l 255 206 q 231 224 255 224 m 87 206 l 107 176 l 117 161 l 127 146 l 139 162 l 151 178 l 163 193 l 174 208 q 165 224 180 222 l 148 224 l 132 224 l 115 224 l 107 224 l 99 224 q 87 206 78 224 m 115 95 l 92 65 l 87 58 l 81 50 q 68 30 70 35 q 70 21 67 24 q 79 17 72 17 l 143 17 q 155 24 153 17 l 153 33 l 144 48 l 134 64 l 124 79 l 115 95 "},"":{"ha":422,"x_min":0,"x_max":422,"o":"m 0 241 l 26 241 l 53 241 l 79 241 l 106 241 l 132 241 l 158 241 l 184 241 l 211 241 l 237 241 l 264 241 l 290 241 l 317 241 l 343 241 l 370 241 l 396 241 l 422 241 l 422 227 l 408 227 q 391 208 391 224 l 391 165 l 391 121 l 391 99 l 391 77 l 391 33 q 412 15 396 15 l 422 15 l 422 0 l 396 0 l 370 0 l 344 0 l 317 0 l 291 0 l 265 0 l 239 0 l 212 0 l 186 0 l 160 0 l 134 0 l 108 0 l 94 0 l 81 0 l 55 0 l 29 0 l 0 0 l 0 14 l 18 17 q 56 52 40 31 l 72 73 l 88 94 l 104 115 l 97 126 l 94 132 l 90 137 l 76 159 l 62 182 l 56 193 q 35 220 49 204 q 18 225 28 226 l 0 225 l 0 241 m 227 227 q 201 210 210 224 l 186 189 l 171 168 l 156 146 l 140 124 l 152 104 l 164 85 l 176 65 q 205 24 187 45 q 252 16 219 13 q 266 41 267 22 l 266 62 l 266 83 l 266 125 l 266 166 l 266 186 l 266 208 q 245 227 266 225 l 227 227 m 300 206 l 300 163 l 300 121 l 300 78 l 300 35 q 322 15 300 19 l 338 15 q 355 36 353 19 l 356 61 l 356 86 l 356 106 l 356 125 q 355 212 356 156 q 336 227 351 225 l 323 227 q 300 206 300 223 m 85 214 l 94 196 l 104 178 l 112 168 l 119 157 l 127 146 l 151 180 l 163 197 l 175 214 l 175 214 q 165 224 174 224 l 148 224 l 132 224 l 115 224 l 98 224 q 85 214 88 224 m 66 28 q 75 17 64 19 l 83 17 l 92 17 l 110 17 l 128 17 l 146 17 q 157 28 157 19 l 146 45 l 136 62 l 125 79 l 115 95 l 102 79 l 90 62 l 78 45 l 66 28 "},"":{"ha":263,"x_min":-1,"x_max":264,"o":"m 117 -7 q 108 169 121 114 q 56 231 95 224 q 41 224 48 231 q 30 211 34 218 q 26 193 26 205 q 30 172 26 180 q 40 157 33 163 q 55 151 47 151 q 70 157 63 151 q 79 161 74 161 q 87 153 83 161 q 92 149 92 151 q 84 139 92 143 q 56 131 71 131 q 27 139 41 131 q 6 161 13 146 q -1 193 -1 176 q 6 223 -1 209 q 27 246 13 238 q 56 254 41 254 q 121 200 96 254 q 132 164 127 184 q 143 200 136 184 q 206 254 166 254 q 235 246 221 254 q 256 223 249 238 q 264 193 264 209 q 256 161 264 176 q 235 139 249 146 q 206 131 221 131 q 175 140 191 131 q 169 150 169 146 q 173 155 169 152 q 181 163 178 162 q 190 160 186 163 q 206 151 199 151 q 221 157 214 151 q 232 172 229 163 q 236 193 236 180 q 232 216 236 205 q 220 229 229 227 q 205 231 212 231 q 158 172 176 232 q 144 -7 141 112 l 117 -7 "},"":{"ha":235,"x_min":-1,"x_max":237,"o":"m 81 78 q 85 47 81 61 q 98 25 90 33 q 116 18 107 18 q 134 25 125 18 q 147 47 142 33 q 152 78 152 61 q 147 107 152 93 q 134 129 142 121 q 116 136 125 136 q 98 129 107 136 q 85 107 90 121 q 81 78 81 93 m 157 149 q 186 119 176 138 q 196 77 196 98 q 186 33 196 53 q 157 1 176 12 q 117 -9 138 -9 q 79 1 98 -9 q 50 33 60 12 q 39 77 39 53 q 50 119 39 98 q 78 149 60 138 q 50 170 60 157 q 39 198 39 183 q 34 219 39 210 q 19 233 29 228 q -1 237 9 237 l -1 256 q 38 249 19 256 q 67 228 57 241 q 77 202 77 214 q 82 183 77 193 q 97 170 87 174 q 117 165 107 165 q 138 170 128 165 q 153 183 148 174 q 159 202 159 193 q 169 228 159 214 q 197 249 178 241 q 237 256 216 256 l 237 237 q 216 233 226 237 q 201 219 206 228 q 196 198 196 210 q 186 170 196 183 q 157 149 176 157 "},"":{"ha":283,"x_min":0,"x_max":285,"o":"m 106 49 q 142 51 123 51 q 178 49 161 51 l 178 198 q 142 196 161 196 q 106 198 123 196 l 106 49 m 214 41 q 267 16 248 32 q 285 -7 279 7 l 240 -7 q 142 22 203 22 q 44 -7 81 22 l 0 -7 q 19 17 6 7 q 71 41 37 32 l 71 205 q 16 231 37 215 q 0 254 5 239 l 43 254 q 142 224 81 224 q 241 254 203 224 l 285 254 q 269 231 279 239 q 214 205 248 215 l 214 41 "},"":{"ha":347,"x_min":3,"x_max":344,"o":"m 37 129 q 40 108 37 118 q 49 92 43 98 q 62 87 56 87 q 75 92 69 87 q 85 108 81 98 q 88 129 88 118 q 85 151 88 140 q 75 166 81 161 q 62 172 69 172 q 49 166 56 172 q 40 151 43 161 q 37 129 37 140 m 293 170 q 271 207 286 195 q 173 230 237 230 q 67 194 108 230 q 92 186 80 192 q 115 161 107 177 q 123 129 123 146 q 115 96 123 112 q 92 72 107 80 q 63 62 77 63 q 31 72 43 63 q 11 95 18 81 q 3 143 3 109 q 52 221 7 189 q 166 256 96 253 q 295 224 251 253 q 335 170 321 205 l 293 170 m 309 116 q 306 138 309 127 q 296 153 302 148 q 283 159 290 159 q 270 153 276 159 q 260 138 263 148 q 257 116 257 127 q 259 97 257 105 q 268 81 260 88 q 286 74 276 74 q 296 79 290 74 q 306 95 302 85 q 309 116 309 105 m 39 81 q 84 36 64 48 q 177 14 113 12 q 275 51 242 12 q 251 59 263 53 q 228 83 236 68 q 220 116 220 99 q 228 149 220 134 q 251 173 236 165 q 283 182 267 182 q 314 173 299 182 q 337 145 330 165 q 342 102 344 125 q 297 24 332 54 q 176 -12 261 -7 q 51 21 92 -9 q 5 73 28 37 l 39 81 "},"":{"ha":228,"x_min":-1,"x_max":230,"o":"m 31 121 q 34 101 31 111 q 43 86 37 92 q 56 81 50 81 q 68 86 62 81 q 78 101 75 92 q 81 121 81 111 q 78 141 81 132 q 68 156 75 151 q 56 161 62 161 q 43 156 50 161 q 34 141 37 151 q 31 121 31 132 m 108 151 q 116 120 116 136 q 108 89 116 104 q 86 66 100 74 q 57 58 73 58 q 28 66 42 58 q 6 89 14 74 q -1 120 -1 104 q 6 151 -1 136 q 28 174 14 166 q 57 182 42 182 q 67 182 62 182 l 67 184 q 87 234 67 214 q 149 254 107 254 q 210 234 189 254 q 230 184 230 214 q 187 109 230 154 q 147 43 144 64 q 153 18 146 21 q 171 15 161 15 q 195 19 186 15 q 209 32 204 23 q 214 52 213 41 l 228 52 l 228 -12 l 216 -12 q 212 -3 214 -5 q 207 -1 210 -1 q 191 -6 202 -1 q 163 -12 180 -12 q 131 4 144 -12 q 118 41 118 19 q 160 122 118 73 q 201 191 201 170 q 190 215 201 203 q 149 227 178 227 q 107 215 119 227 q 95 184 95 203 q 99 168 95 175 q 108 151 104 160 "},"":{"ha":307,"x_min":-1,"x_max":307,"o":"m 212 125 l 212 34 q 254 57 237 36 q 268 97 268 75 q 252 149 268 125 q 244 157 248 154 l 212 125 m 181 30 q 180 50 180 39 l 180 193 q 178 211 180 204 q 174 220 177 217 q 168 223 171 223 l 133 189 q 134 165 134 178 l 134 41 l 104 41 l 104 193 q 103 211 104 204 q 99 220 102 217 q 92 223 96 223 l 58 194 q 59 165 59 178 l 59 41 l -1 41 l -1 56 l 7 56 q 23 64 17 56 q 29 80 29 73 l 29 202 q 28 229 29 222 q 23 239 26 236 q 17 241 20 241 l 17 254 q 45 237 35 251 q 53 224 50 232 l 82 254 l 92 254 q 121 237 109 251 q 128 224 125 232 l 157 254 l 168 254 q 196 237 184 251 q 210 185 210 220 l 210 162 l 251 203 q 279 179 266 193 q 307 103 307 149 q 278 27 307 58 q 212 -3 252 -1 q 212 -12 212 -9 q 216 -19 214 -17 q 222 -23 218 -21 l 222 -35 q 193 -19 205 -33 q 182 -1 186 -11 q 128 37 160 5 q 123 45 125 41 l 127 66 q 181 30 155 35 "},"":{"ha":315,"x_min":0,"x_max":317,"o":"m 0 57 l 0 85 l 57 85 q 50 133 50 106 q 79 219 50 184 q 158 254 109 254 q 237 219 208 254 q 267 133 267 184 q 259 85 267 106 l 317 85 l 317 57 l 205 57 q 217 83 208 59 q 227 133 227 108 q 210 194 227 168 q 160 220 192 220 q 108 194 127 220 q 89 133 89 168 q 99 83 89 108 q 112 56 109 59 l 0 57 m 0 19 l 317 19 l 317 -9 l 0 -9 l 0 19 m 111 56 q 102 37 110 44 q 88 22 95 26 q 60 16 81 18 l 53 16 q 16 33 31 16 q 0 57 5 41 q 111 56 53 73 m 317 59 q 309 36 316 43 q 294 24 301 29 q 267 15 286 18 l 259 15 q 222 33 237 16 q 206 57 211 41 q 317 59 259 73 "},"":{"ha":302,"x_min":-1,"x_max":309,"o":"m 168 58 l 168 186 q 166 212 168 206 q 162 221 165 218 q 156 223 159 223 l 123 191 q 125 182 125 193 l 125 58 l 98 58 l 98 186 q 96 212 98 206 q 92 221 95 218 q 86 223 90 223 l 54 191 q 56 170 56 182 l 56 58 l -1 58 l -1 75 l 6 75 q 22 82 16 75 q 27 97 27 90 l 27 200 q 26 227 27 220 q 22 235 25 233 q 16 238 19 238 l 16 255 q 43 240 32 253 q 50 228 47 235 l 77 255 l 86 255 q 113 240 102 253 q 119 228 117 235 l 146 255 l 156 255 q 182 240 172 253 q 195 191 195 224 l 195 64 q 199 44 195 52 q 210 30 203 37 q 226 24 218 24 l 254 24 q 218 73 234 41 l 232 73 q 309 2 267 30 q 232 -54 268 -12 l 218 -54 q 254 -5 236 -22 l 226 -5 q 196 3 210 -5 q 175 26 182 12 q 168 58 168 41 "},"":{"ha":284,"x_min":-1,"x_max":288,"o":"m 106 60 l 26 -20 l -1 6 l 79 86 l 22 141 l 51 170 l 107 115 l 198 208 q 122 216 172 203 l 147 238 q 288 266 232 238 q 260 125 260 210 l 234 110 q 224 186 220 159 l 134 88 l 191 29 l 163 1 l 106 60 "},"":{"ha":317,"x_min":1,"x_max":321,"o":"m 228 104 q 232 83 228 94 q 242 67 235 73 q 255 61 248 61 q 269 67 262 61 q 279 83 275 73 q 283 104 283 94 q 279 126 283 116 q 269 143 275 137 q 255 149 262 149 q 242 143 248 149 q 232 126 235 137 q 228 104 228 116 m 216 162 q 221 165 219 163 q 254 174 237 174 q 288 165 272 174 q 313 138 304 156 q 321 102 321 121 q 313 66 321 83 q 288 39 304 49 q 254 30 272 30 q 221 39 237 30 q 208 50 214 43 q 189 21 201 34 q 108 -12 157 -12 q 39 21 71 -12 q 36 25 37 23 l 40 41 q 108 15 64 15 q 167 41 146 15 q 188 102 188 67 q 170 233 188 175 q 124 174 142 232 q 105 12 105 107 l 73 12 q 54 172 73 107 q 1 236 35 236 l 1 256 q 77 191 48 256 q 89 156 83 174 q 102 191 94 174 q 177 256 130 256 l 194 256 q 216 162 211 215 "},"":{"ha":363,"x_min":-1,"x_max":366,"o":"m -1 119 l 89 256 l 136 169 l 192 254 l 239 168 l 294 252 l 352 155 l 325 106 l 281 187 l 225 102 l 178 189 l 123 104 l 76 191 l 26 119 l -1 119 m 3 -13 l 102 147 l 149 60 l 205 145 l 252 58 l 308 143 l 366 43 l 335 -12 l 292 68 l 236 -16 l 189 71 l 133 -14 l 86 73 l 30 -14 l 3 -13 "},"":{"ha":299,"x_min":-1,"x_max":302,"o":"m 94 136 q 62 212 91 177 q 38 231 54 222 q 9 240 22 240 l -1 240 l -1 256 l 66 256 q 80 243 73 250 q 132 136 128 197 l 170 136 q 221 243 173 197 q 235 256 228 250 l 302 256 l 302 240 l 292 240 q 264 231 279 240 q 241 213 248 222 q 208 136 210 177 l 292 136 l 292 111 l 208 111 q 242 35 211 69 q 263 17 250 26 q 292 7 279 7 l 302 7 l 302 -9 l 236 -9 q 222 3 229 -3 q 170 111 173 49 l 132 111 q 79 3 128 49 q 65 -9 73 -3 l -1 -9 l -1 7 l 9 7 q 39 17 22 7 q 60 35 53 26 q 94 111 90 69 l 9 111 l 9 136 l 94 136 "}}}
